<?xml version="1.0" encoding="UTF-8"?>
<svg width="224px" height="30px" viewBox="0 0 224 30" version="1.1" xmlns="http://www.w3.org/2000/svg" xmlns:xlink="http://www.w3.org/1999/xlink">
    <!-- Generator: sketchtool 52.4 (67378) - http://www.bohemiancoding.com/sketch -->
    <title>CCBA970A-1711-4A65-9285-659B45F91052</title>
    <desc>Created with sketchtool.</desc>
    <g id="Page-1" stroke="none" stroke-width="1" fill="none" fill-rule="evenodd">
        <g id="Full-HD-" transform="translate(-1312.000000, -3523.000000)">
            <g id="Group-16" transform="translate(102.000000, 2920.000000)">
                <g id="Group-31-Copy-5" transform="translate(1210.000000, 603.000000)">
                    <polygon id="Rectangle" fill="#E3E6E9" fill-rule="nonzero" points="22 4.26325641e-13 212.776003 4.26325641e-13 223.844552 14.7865917 212.776003 30 22 30 32 15.2647533"></polygon>
                    <path d="M122.583275,20.15 C121.743271,20.15 121.005778,19.9900016 120.370775,19.67 C119.735772,19.3499984 119.245777,18.9100028 118.900775,18.35 C118.555773,17.7899972 118.383275,17.1600035 118.383275,16.46 C118.383275,15.5799956 118.773271,14.6100053 119.553275,13.55 L122.283275,9.8 C122.363276,9.6999995 122.438275,9.62500025 122.508275,9.575 C122.578275,9.52499975 122.678274,9.5 122.808275,9.5 L124.233275,9.5 C124.323276,9.5 124.395775,9.53249968 124.450775,9.5975 C124.505775,9.66250032 124.533275,9.73999955 124.533275,9.83 C124.533275,9.90000035 124.513275,9.9649997 124.473275,10.025 L122.373275,12.92 C122.533276,12.8799998 122.743274,12.86 123.003275,12.86 C123.673278,12.87 124.290772,13.0324984 124.855775,13.3475 C125.420778,13.6625016 125.870773,14.0899973 126.205775,14.63 C126.540777,15.1700027 126.708275,15.7699967 126.708275,16.43 C126.708275,17.1100034 126.540777,17.7324972 126.205775,18.2975 C125.870773,18.8625028 125.390778,19.3124983 124.765775,19.6475 C124.140772,19.9825017 123.413279,20.15 122.583275,20.15 Z M122.553275,18.41 C123.113278,18.41 123.588273,18.2375017 123.978275,17.8925 C124.368277,17.5474983 124.563275,17.0700031 124.563275,16.46 C124.563275,15.859997 124.370777,15.3875017 123.985775,15.0425 C123.600773,14.6974983 123.123278,14.525 122.553275,14.525 C121.993272,14.525 121.520777,14.6974983 121.135775,15.0425 C120.750773,15.3875017 120.558275,15.859997 120.558275,16.46 C120.558275,17.0700031 120.750773,17.5474983 121.135775,17.8925 C121.520777,18.2375017 121.993272,18.41 122.553275,18.41 Z" id="6" fill="#A6B7C8"></path>
                    <polygon id="Rectangle-Copy" fill="#E3E6E9" fill-rule="nonzero" points="3.67273175e-13 0 14.7760026 0 25.8445521 14.7865917 14.7760026 30 3.67273175e-13 30 10 15.2647533"></polygon>
                </g>
            </g>
        </g>
    </g>
</svg>