<?xml version="1.0" encoding="UTF-8"?>
<svg width="12px" height="13px" viewBox="0 0 12 13" version="1.1" xmlns="http://www.w3.org/2000/svg" xmlns:xlink="http://www.w3.org/1999/xlink">
    <!-- Generator: Sketch 51.2 (57519) - http://www.bohemiancoding.com/sketch -->
    <title>path3339</title>
    <desc>Created with Sketch.</desc>
    <defs></defs>
    <g id="-" stroke="none" stroke-width="1" fill="none" fill-rule="evenodd">
        <g id="Lookee-web" transform="translate(-553.000000, -506.000000)" fill="#E03434" fill-rule="nonzero">
            <g id="Group-4" transform="translate(115.000000, 317.000000)">
                <g id="Group-9" transform="translate(0.000000, 162.900000)">
                    <path d="M449.1,32.3567549 C449.1,31.9451271 448.785648,31.6096381 448.392253,31.6096381 L442.525845,31.6096381 L445.014995,28.9820474 C445.289848,28.691905 445.289848,28.2185983 445.014995,27.9230275 L444.346769,27.2176068 C444.071916,26.9274644 443.623551,26.9274644 443.343555,27.2176068 L438.507846,32.3222886 C438.37042,32.4673598 438.3,32.6577777 438.3,32.849997 C438.3,33.0403912 438.37042,33.2326342 438.507846,33.3777055 L443.343555,38.4824109 C443.618409,38.7725297 444.066774,38.7725297 444.346769,38.4824109 L445.014995,37.7769903 C445.289848,37.4868478 445.289848,37.0135411 445.014995,36.7179704 L442.525845,34.0994348 L448.388795,34.0994348 C448.778754,34.0994348 449.096564,33.7639457 449.096564,33.3522943 L449.1,32.3567549 Z" id="path3339" transform="translate(443.700000, 32.850000) scale(-1, 1) translate(-443.700000, -32.850000) "></path>
                </g>
            </g>
        </g>
    </g>
</svg>