<?xml version="1.0" encoding="UTF-8"?>
<svg width="23px" height="29px" viewBox="0 0 23 29" version="1.1" xmlns="http://www.w3.org/2000/svg" xmlns:xlink="http://www.w3.org/1999/xlink">
    <!-- Generator: sketchtool 52.4 (67378) - http://www.bohemiancoding.com/sketch -->
    <title>F7E665B7-4E8A-4039-A0AE-9361CEA3DECB</title>
    <desc>Created with sketchtool.</desc>
    <g id="Page-1" stroke="none" stroke-width="1" fill="none" fill-rule="evenodd">
        <g id="Full-HD-" transform="translate(-441.000000, -8405.000000)" fill="#000000">
            <g id="toine-garnier-396670-unsplash" transform="translate(0.000000, 8174.000000)">
                <g id="Group-28" transform="translate(428.000000, 79.000000)">
                    <g id="Group-27" transform="translate(0.000000, 135.000000)">
                        <g id="Group-25" transform="translate(12.800000, 17.600000)">
                            <g id="avatar" transform="translate(0.640000, 0.320000)">
                                <path d="M11.1018978,15.084058 C11.1291484,15.084058 11.156399,15.084058 11.1890998,15.084058 C11.2,15.084058 11.2109002,15.084058 11.2218005,15.084058 C11.2381509,15.084058 11.2599513,15.084058 11.2763017,15.084058 C12.8731873,15.0550725 14.1648662,14.457971 15.1186375,13.315942 C17.2169343,10.8 16.8681265,6.48695652 16.8299757,6.07536232 C16.6937226,2.98550725 15.320292,1.50724638 14.1866667,0.817391304 C13.3418978,0.301449275 12.3554258,0.0231884058 11.2545012,0 L11.2163504,0 C11.2109002,0 11.2,0 11.1945499,0 L11.1618491,0 C10.5568856,0 9.36875912,0.104347826 8.2296837,0.794202899 C7.08515815,1.48405797 5.68992701,2.96231884 5.55367397,6.07536232 C5.51552311,6.48695652 5.16671533,10.8 7.26501217,13.315942 C8.21333333,14.457971 9.50501217,15.0550725 11.1018978,15.084058 Z M7.00885645,6.22028986 C7.00885645,6.20289855 7.01430657,6.18550725 7.01430657,6.17391304 C7.19416058,2.0173913 9.96827251,1.57101449 11.156399,1.57101449 L11.1781995,1.57101449 C11.1890998,1.57101449 11.2054501,1.57101449 11.2218005,1.57101449 C12.6933333,1.6057971 15.1949392,2.24347826 15.3638929,6.17391304 C15.3638929,6.19130435 15.3638929,6.20869565 15.3693431,6.22028986 C15.3747932,6.26086957 15.7563017,10.2028986 14.023163,12.2782609 C13.3364477,13.1014493 12.4208273,13.5072464 11.2163504,13.5188406 C11.2054501,13.5188406 11.2,13.5188406 11.1890998,13.5188406 C11.1781995,13.5188406 11.1727494,13.5188406 11.1618491,13.5188406 C9.96282238,13.5072464 9.04175182,13.1014493 8.36048662,12.2782609 C6.63279805,10.2144928 7.00340633,6.25507246 7.00885645,6.22028986 Z" id="Shape" fill-rule="nonzero"></path>
                                <path d="M22.3890998,22.2376812 C22.3890998,22.2318841 22.3890998,22.226087 22.3890998,22.2202899 C22.3890998,22.173913 22.3836496,22.1275362 22.3836496,22.0753623 C22.3509489,20.9275362 22.2800973,18.2434783 19.9147445,17.3855072 C19.8983942,17.3797101 19.8765937,17.373913 19.8602433,17.3681159 C17.4022384,16.7014493 15.3584428,15.1942029 15.3366423,15.1768116 C15.0041849,14.9275362 14.5463747,15.0144928 14.3120195,15.3681159 C14.0776642,15.7217391 14.1594161,16.2086957 14.4918735,16.457971 C14.5845255,16.5275362 16.753674,18.1333333 19.4678345,18.8753623 C20.7377129,19.3565217 20.8794161,20.8 20.9175669,22.1217391 C20.9175669,22.173913 20.9175669,22.2202899 20.923017,22.2666667 C20.9284672,22.7884058 20.8957664,23.5942029 20.8085645,24.057971 C19.9256448,24.5913043 16.4648175,26.4347826 11.2,26.4347826 C5.95698297,26.4347826 2.47435523,24.5855072 1.5859854,24.0521739 C1.49878345,23.5884058 1.4606326,22.7826087 1.47153285,22.2608696 C1.47153285,22.2144928 1.47698297,22.1681159 1.47698297,22.115942 C1.51513382,20.7942029 1.65683698,19.3507246 2.92671533,18.8695652 C5.64087591,18.1275362 7.81002433,16.515942 7.9026764,16.4521739 C8.23513382,16.2028986 8.31688564,15.715942 8.08253041,15.3623188 C7.84817518,15.0086957 7.39036496,14.9217391 7.05790754,15.1710145 C7.03610706,15.1884058 5.00321168,16.6956522 2.53430657,17.3623188 C2.51250608,17.3681159 2.49615572,17.373913 2.47980535,17.3797101 C0.114452555,18.2434783 0.0436009732,20.9275362 0.0109002433,22.0695652 C0.0109002433,22.1217391 0.0109002433,22.1681159 0.00545012165,22.2144928 C0.00545012165,22.2202899 0.00545012165,22.226087 0.00545012165,22.2318841 C8.67361738e-19,22.5333333 -0.00545012165,24.0811594 0.283406326,24.857971 C0.337907543,25.0086957 0.436009732,25.1362319 0.566812652,25.2231884 C0.730316302,25.3391304 4.64895377,27.9942029 11.2054501,27.9942029 C17.7619465,27.9942029 21.6805839,25.3333333 21.8440876,25.2231884 C21.9694404,25.1362319 22.0729927,25.0086957 22.1274939,24.857971 C22.4,24.0869565 22.3945499,22.5391304 22.3890998,22.2376812 Z" id="Path"></path>
                            </g>
                        </g>
                    </g>
                </g>
            </g>
        </g>
    </g>
</svg>