<?xml version="1.0" encoding="UTF-8"?>
<svg width="110px" height="100px" viewBox="0 0 110 100" version="1.1" xmlns="http://www.w3.org/2000/svg" xmlns:xlink="http://www.w3.org/1999/xlink">
    <!-- Generator: sketchtool 52.4 (67378) - http://www.bohemiancoding.com/sketch -->
    <title>85DBF847-F76F-4926-8F21-E06B92D981E9</title>
    <desc>Created with sketchtool.</desc>
    <g id="Page-1" stroke="none" stroke-width="1" fill="none" fill-rule="evenodd">
        <g id="Full-HD-" transform="translate(-701.000000, -3095.000000)">
            <g id="Group-16" transform="translate(102.000000, 2920.000000)">
                <g id="Group-13" transform="translate(448.000000, 175.000000)">
                    <g id="Group-12" transform="translate(151.000000, 0.000000)">
                        <circle id="Oval" fill="#F2EE18" cx="80.6" cy="42.6" r="28.6"></circle>
                        <g id="certificate" fill="#000000">
                            <path d="M87.5007813,18.1640625 C88.5794922,18.1640625 89.4539063,17.2896484 89.4539063,16.2109375 L89.4539063,5.859375 C89.4539063,2.62851562 86.8253906,0 83.5945313,0 L5.86015625,0 C2.62929688,0 0.00078125,2.62851562 0.00078125,5.859375 L0.00078125,94.140625 C0.00078125,97.3714844 2.62929688,100 5.86015625,100 L83.5945313,100 C86.8253906,100 89.4539063,97.3714844 89.4539063,94.140625 L89.4539063,88.671875 C89.4539063,87.5931641 88.5794922,86.71875 87.5007813,86.71875 C86.4220703,86.71875 85.5476563,87.5931641 85.5476563,88.671875 L85.5476563,94.140625 C85.5476563,95.2175781 84.6714844,96.09375 83.5945313,96.09375 L5.86015625,96.09375 C4.78320313,96.09375 3.90703125,95.2175781 3.90703125,94.140625 L3.90703125,5.859375 C3.90703125,4.78242187 4.78320313,3.90625 5.86015625,3.90625 L83.5945313,3.90625 C84.6714844,3.90625 85.5476563,4.78242187 85.5476563,5.859375 L85.5476563,16.2109375 C85.5476563,17.2896484 86.4220703,18.1640625 87.5007813,18.1640625 Z" id="Path"></path>
                            <path d="M78.1269531,9.375 L11.3277344,9.375 C10.2490234,9.375 9.37460937,10.2494141 9.37460937,11.328125 L9.37460937,52.1484375 C9.37460937,53.2271484 10.2490234,54.1015625 11.3277344,54.1015625 C12.4064453,54.1015625 13.2808594,53.2271484 13.2808594,52.1484375 L13.2808594,13.28125 L76.1738281,13.28125 L76.1738281,16.40625 C76.1738281,17.4849609 77.0484375,18.359375 78.1269531,18.359375 C79.2056641,18.359375 80.0800781,17.4849609 80.0800781,16.40625 L80.0800781,11.328125 C80.0800781,10.2494141 79.2056641,9.375 78.1269531,9.375 Z" id="Path"></path>
                            <path d="M12.7078125,57.9941406 C12.3445312,57.6308594 11.8425781,57.421875 11.3269531,57.421875 C10.8132812,57.421875 10.309375,57.6308594 9.94609375,57.9941406 C9.5828125,58.3574219 9.37382812,58.8613281 9.37382812,59.375 C9.37382812,59.8886719 9.5828125,60.3925781 9.94609375,60.7558594 C10.309375,61.1191406 10.8132812,61.328125 11.3269531,61.328125 C11.8425781,61.328125 12.3445312,61.1191406 12.7078125,60.7558594 C13.0730469,60.3925781 13.2800781,59.8886719 13.2800781,59.375 C13.2800781,58.8613281 13.0730469,58.3574219 12.7078125,57.9941406 Z" id="Path"></path>
                            <path d="M78.1269531,82.421875 C77.0482422,82.421875 76.1738281,83.2962891 76.1738281,84.375 L76.1738281,86.71875 L13.2808594,86.71875 L13.2808594,66.8945312 C13.2808594,65.8158203 12.4064453,64.9414062 11.3277344,64.9414062 C10.2490234,64.9414062 9.37460938,65.8158203 9.37460938,66.8945312 L9.37460938,88.671875 C9.37460938,89.7505859 10.2490234,90.625 11.3277344,90.625 L78.1269531,90.625 C79.2056641,90.625 80.0800781,89.7505859 80.0800781,88.671875 L80.0800781,84.375 C80.0800781,83.2962891 79.2056641,82.421875 78.1269531,82.421875 Z" id="Path"></path>
                            <path d="M60.5289063,69.0109375 C59.7662109,68.2480469 58.5296875,68.2480469 57.7667969,69.0107422 L53.9066406,72.8710938 L51.5072266,70.4714844 C49.9921875,68.9566406 47.5275391,68.9566406 46.0125,70.4714844 L44.4511719,72.0328125 C43.6884766,72.7955078 43.6884766,74.0322266 44.4511719,74.7951172 C45.2138672,75.5578125 46.4505859,75.5578125 47.2134766,74.7951172 L48.7599609,73.2486328 L51.159375,75.6482422 C51.9167969,76.4056641 52.9117187,76.784375 53.9066406,76.784375 C54.9015625,76.784375 55.8964844,76.4056641 56.6539062,75.6482422 L60.5289062,71.7732422 C61.2916016,71.0105469 61.2916016,69.7738281 60.5289063,69.0109375 Z" id="Path"></path>
                            <path d="M99.1015625,40.9730469 C99.9623047,39.6302734 100.219336,37.9763672 99.8064453,36.4357422 C99.3935547,34.8951172 98.3443359,33.5914063 96.9273438,32.8589844 C96.3128906,32.5414063 95.9367187,31.8898438 95.9689453,31.1990234 C96.0429687,29.6056641 95.4386719,28.0451172 94.3109375,26.9171875 C93.1832031,25.7894531 91.6230469,25.1841797 90.0291016,25.2591797 C89.3349609,25.2927734 88.6867187,24.9150391 88.3691406,24.3007813 C87.6367188,22.8839844 86.3330078,21.8345703 84.7923828,21.4216797 C83.2511719,21.0085938 81.5978516,21.2658203 80.2552734,22.1265625 C79.6730469,22.5 78.9207031,22.4998047 78.3386719,22.1265625 C76.9958984,21.265625 75.3423828,21.0087891 73.8015625,21.4216797 C72.2609375,21.8345703 70.9572266,22.8839844 70.2248047,24.3007813 C69.9072266,24.9152344 69.2539062,25.2904297 68.5648437,25.2591797 C66.9708984,25.1847656 65.4109375,25.7894531 64.2832031,26.9171875 C63.1552734,28.0451172 62.5509766,29.6056641 62.625,31.1988281 C62.6572266,31.8898438 62.2808594,32.5414063 61.6666016,32.8589844 C60.2498047,33.5914063 59.2003906,34.8949219 58.7875,36.4357422 C58.5904297,37.1707031 58.5476562,37.9314453 58.6486328,38.671875 L24.5666016,38.671875 C23.4878906,38.671875 22.6134766,39.5462891 22.6134766,40.625 C22.6134766,41.7037109 23.4878906,42.578125 24.5666016,42.578125 L59.6464844,42.578125 C59.6044922,42.6853516 59.5558594,42.790625 59.4921875,42.8898438 C58.6314453,44.2326172 58.3744141,45.8865234 58.7873047,47.4271484 C58.8439453,47.6386719 58.9136719,47.8453125 58.99375,48.046875 L24.5660156,48.046875 C23.4873047,48.046875 22.6128906,48.9212891 22.6128906,50 C22.6128906,51.0787109 23.4873047,51.953125 24.5660156,51.953125 L62.5083984,51.953125 C62.5933594,52.1763672 62.6359375,52.4171875 62.6244141,52.6638672 C62.5503906,54.2572266 63.1546875,55.8177734 64.2826172,56.9457031 C65.4103516,58.0734375 66.9703125,58.6789063 68.5642578,58.6037109 C69.2542969,58.5699219 69.9066406,58.9476563 70.2242188,59.5621094 C70.4587891,60.0160156 70.7527344,60.4314453 71.0935547,60.8011719 L71.0935547,79.0419922 C71.0935547,79.8310547 71.5683594,80.5425781 72.296875,80.8455078 C73.0251953,81.1484375 73.8646484,80.9832031 74.4242188,80.4265625 L79.2966797,75.5794922 L84.1691406,80.4265625 C84.5425781,80.7980469 85.0404297,80.9951172 85.5470703,80.9951172 C85.7994141,80.9951172 86.0541016,80.9460938 86.2964844,80.8453125 C87.025,80.5423828 87.4998047,79.8308594 87.4998047,79.0417969 L87.4998047,60.8009766 C87.840625,60.4314453 88.1345703,60.0158203 88.3691406,59.5619141 C88.6867188,58.9474609 89.3390625,58.5720703 90.0291016,58.6035156 C91.6240234,58.6789062 93.1830078,58.0734375 94.3107422,56.9455078 C95.4386719,55.8175781 96.0429688,54.2570313 95.9689453,52.6636719 C95.9367188,51.9728516 96.3130859,51.3212891 96.9273438,51.0037109 C98.3441406,50.2712891 99.3935547,48.9677734 99.8064453,47.4269531 C100.219336,45.8861328 99.9623047,44.2324219 99.1015625,42.8894531 C98.728125,42.3076172 98.728125,41.5552734 99.1015625,40.9730469 Z M83.5935547,74.3441406 L80.6740234,71.4398438 C79.9121094,70.6818359 78.6810547,70.6818359 77.9191406,71.4398438 L74.9998047,74.3441406 L74.9998047,62.6269531 C76.1683594,62.6820312 77.3394531,62.3765625 78.3384766,61.7363281 C78.9207031,61.3628906 79.6730469,61.3630859 80.2550781,61.7363281 C81.1775391,62.3277344 82.2466797,62.6341797 83.3253906,62.6341797 C83.4148437,62.6341797 83.5041016,62.6296875 83.5935547,62.6253906 L83.5935547,74.3441406 Z M96.0332031,46.4162109 C95.9023437,46.9046875 95.5826172,47.3017578 95.1333984,47.5339844 C93.1677734,48.5501953 91.9638672,50.6349609 92.0667969,52.8455078 C92.0904297,53.3507812 91.90625,53.8259766 91.5486328,54.1837891 C91.1910156,54.5414063 90.7158203,54.725 90.2105469,54.7019531 C87.9988281,54.5996094 85.9152344,55.8027344 84.8990234,57.7685547 C84.6667969,58.2179688 84.2697266,58.5375 83.7810547,58.6683594 C83.2927734,58.7990234 82.7888672,58.7210938 82.3632812,58.4480469 C81.4316406,57.8507813 80.3642578,57.5523438 79.2964844,57.5523438 C78.2291016,57.5523438 77.1613281,57.8509766 76.2298828,58.4480469 C75.8041016,58.7208984 75.3003906,58.7990234 74.8119141,58.6683594 C74.3232422,58.5375 73.9263672,58.2177734 73.6939453,57.7685547 C72.6777344,55.8029297 70.5945312,54.5986328 68.3824219,54.7019531 C67.8783203,54.7251953 67.4019531,54.5414063 67.0443359,54.1837891 C66.6865234,53.8259766 66.5025391,53.3507812 66.5261719,52.8453125 C66.5986328,51.2851562 66.0179687,49.7894531 64.9802734,48.6861328 C64.9498047,48.6527344 64.91875,48.6199219 64.8859375,48.5886719 C64.4738281,48.1708984 63.9962891,47.8115234 63.4595703,47.5339844 C63.0103516,47.3017578 62.6908203,46.9048828 62.5599609,46.4162109 C62.4291016,45.9275391 62.5072266,45.4238281 62.7802734,44.9982422 C63.9746094,43.1353516 63.9746094,40.7279297 62.7802734,38.8650391 C62.5074219,38.4392578 62.4291016,37.9355469 62.5599609,37.446875 C62.6908203,36.9583984 63.0105469,36.5613281 63.4597656,36.3291016 C65.4253906,35.3128906 66.6291016,33.228125 66.5263672,31.0175781 C66.5027344,30.5123047 66.6869141,30.0371094 67.0445312,29.6792969 C67.4021484,29.3214844 67.8783203,29.1378906 68.3826172,29.1611328 C70.5945312,29.2636719 72.678125,28.0603516 73.6941406,26.0945313 C73.9263672,25.6451172 74.3234375,25.3255859 74.8121094,25.1947266 C75.3005859,25.0640625 75.8042969,25.1419922 76.2298828,25.4150391 C78.0929687,26.6095703 80.5005859,26.6095703 82.3630859,25.4150391 C82.7888672,25.1421875 83.2923828,25.0636719 83.7810547,25.1947266 C84.2697266,25.3255859 84.6666016,25.6453125 84.8990234,26.0945313 C85.9152344,28.0601563 87.9998047,29.2642578 90.2105469,29.1611328 C90.7160156,29.1380859 91.1910156,29.3214844 91.5486328,29.6792969 C91.9064453,30.0371094 92.0904297,30.5123047 92.0667969,31.0175781 C91.9640625,33.2279297 93.1675781,35.3128906 95.1335937,36.3291016 C95.5828125,36.5613281 95.9023437,36.9582031 96.0332031,37.446875 C96.1640625,37.9355469 96.0859375,38.4392578 95.8128906,38.8648438 C94.6185547,40.7277344 94.6185547,43.1351563 95.8128906,44.9980469 C96.0859375,45.4238281 96.1642578,45.9275391 96.0332031,46.4162109 Z" id="Shape" fill-rule="nonzero"></path>
                            <path d="M88.5851562,36.6183594 C87.8224609,35.8556641 86.5857422,35.8556641 85.8230469,36.6183594 L79.3404297,43.1011719 L76.7597656,40.5205078 C75.9970703,39.7578125 74.7603516,39.7578125 73.9974609,40.5205078 C73.2347656,41.2832031 73.2347656,42.5199219 73.9974609,43.2828125 L77.9591797,47.2445312 C78.340625,47.6259766 78.8404297,47.8166016 79.3402344,47.8166016 C79.8400391,47.8166016 80.3400391,47.6259766 80.7212891,47.2445312 L88.5851562,39.3806641 C89.3478516,38.6179687 89.3478516,37.38125 88.5851562,36.6183594 Z" id="Path"></path>
                            <path d="M23.8425781,23.6191406 C23.4792969,23.2558594 22.9753906,23.046875 22.4617187,23.046875 C21.9480469,23.046875 21.4441406,23.2558594 21.0808594,23.6191406 C20.7175781,23.9824219 20.5085937,24.4863281 20.5085937,25 C20.5085937,25.5136719 20.7175781,26.0175781 21.0808594,26.3808594 C21.4441406,26.7441406 21.9480469,26.953125 22.4617187,26.953125 C22.9753906,26.953125 23.4792969,26.7441406 23.8425781,26.3808594 C24.2058594,26.0175781 24.4148437,25.5136719 24.4148437,25 C24.4148437,24.4863281 24.2058594,23.9824219 23.8425781,23.6191406 Z" id="Path"></path>
                            <path d="M39.2572266,23.046875 L29.7519531,23.046875 C28.6732422,23.046875 27.7988281,23.9212891 27.7988281,25 C27.7988281,26.0787109 28.6732422,26.953125 29.7519531,26.953125 L39.2572266,26.953125 C40.3359375,26.953125 41.2103516,26.0787109 41.2103516,25 C41.2103516,23.9212891 40.3359375,23.046875 39.2572266,23.046875 Z" id="Path"></path>
                            <path d="M59.1480469,57.421875 L36.8195312,57.421875 C35.7408203,57.421875 34.8664062,58.2962891 34.8664062,59.375 C34.8664062,60.4537109 35.7408203,61.328125 36.8195312,61.328125 L59.1478516,61.328125 C60.2265625,61.328125 61.1009766,60.4537109 61.1009766,59.375 C61.1009766,58.2962891 60.2267578,57.421875 59.1480469,57.421875 Z" id="Path"></path>
                        </g>
                    </g>
                </g>
            </g>
        </g>
    </g>
</svg>