<?xml version="1.0" encoding="UTF-8"?>
<svg width="102px" height="109px" viewBox="0 0 102 109" version="1.1" xmlns="http://www.w3.org/2000/svg" xmlns:xlink="http://www.w3.org/1999/xlink">
    <!-- Generator: sketchtool 52.4 (67378) - http://www.bohemiancoding.com/sketch -->
    <title>1DFD7DFF-3A96-466A-9DF2-068620535DA3</title>
    <desc>Created with sketchtool.</desc>
    <g id="Page-1" stroke="none" stroke-width="1" fill="none" fill-rule="evenodd">
        <g id="Full-HD-" transform="translate(-245.000000, -3091.000000)">
            <g id="Group-16" transform="translate(102.000000, 2920.000000)">
                <g id="Group-30" transform="translate(0.000000, 171.000000)">
                    <g id="Group-12" transform="translate(143.000000, 0.000000)">
                        <circle id="Oval" fill="#F2EE18" cx="51" cy="24" r="24"></circle>
                        <g id="rating" transform="translate(0.000000, 7.000000)" fill="#000000">
                            <path d="M29.9718633,62.1568477 C31.4612227,61.4053945 33.2486133,61.9665938 34.0413047,63.4344375 L39.667043,73.8515859 C40.100543,74.6542383 41.0239219,75.0594492 41.9082539,74.8363242 C42.7925859,74.6128008 43.4121563,73.8171211 43.4121563,72.9048984 L43.4121563,57.6943477 C43.411957,56.5942617 42.5200547,55.7023594 41.4197695,55.7023594 C40.3194844,55.7023594 39.427582,56.5944609 39.427582,57.6945469 L39.427582,65.0238047 L37.546957,61.5414609 C35.7217148,58.1621133 31.6056563,56.8693828 28.1771016,58.5997969 C25.2428086,60.0801914 23.7317344,63.3453867 24.5025117,66.5402578 L28.1496094,81.6571758 C29.0020664,85.190918 30.5219062,88.4708555 32.6666953,91.4059453 L39.8114766,101.183004 C40.2015469,101.71691 40.8073711,102 41.4215625,102 C41.8293633,102 42.2409492,101.87509 42.5953594,101.616105 C43.4836758,100.966852 43.6777148,99.7203398 43.0284609,98.8320234 L35.8836797,89.0549648 C34.0504688,86.5464023 32.7515625,83.7431953 32.0230195,80.7228398 L28.3759219,65.6057227 C28.0410352,64.2179648 28.6974609,62.7999258 29.9718633,62.1568477 Z" id="Path"></path>
                            <path d="M74.9510742,53.6655469 C73.7754844,53.6655469 72.6688242,53.9665664 71.7038086,54.4950937 C70.7262422,51.9486797 68.2569258,50.1355898 65.3704453,50.1355898 C64.1255273,50.1355898 62.9589023,50.4742617 61.9550391,51.061957 C60.8820469,48.7275117 58.5230977,47.1014883 55.7900156,47.1014883 C54.7925273,47.1014883 53.8456406,47.3196328 52.9919883,47.7079102 L52.9919883,38.1830625 C52.9919883,34.4433281 49.9495195,31.4006602 46.2095859,31.4006602 C42.4696523,31.4006602 39.4271836,34.4431289 39.4271836,38.1830625 L39.4271836,41.6363203 C39.4271836,42.7364062 40.3190859,43.6285078 41.4193711,43.6285078 C42.5196562,43.6285078 43.4115586,42.7364062 43.4115586,41.6363203 L43.4115586,38.1832617 C43.4115586,36.6405117 44.6668359,35.3852344 46.2095859,35.3852344 C47.7523359,35.3852344 49.0076133,36.6405117 49.0076133,38.1832617 L49.0076133,66.2944219 C49.0076133,67.3945078 49.8995156,68.2866094 50.9998008,68.2866094 C52.1000859,68.2866094 52.9919883,67.3945078 52.9919883,66.2944219 L52.9919883,53.8836914 C52.9919883,52.3409414 54.2470664,51.0856641 55.7900156,51.0856641 C57.3329648,51.0856641 58.588043,52.3409414 58.588043,53.8836914 L58.588043,66.2944219 C58.588043,67.3945078 59.4799453,68.2866094 60.5802305,68.2866094 C61.6805156,68.2866094 62.572418,67.3945078 62.572418,66.2944219 L62.572418,56.9179922 C62.572418,55.375043 63.8274961,54.1197656 65.3704453,54.1197656 C66.9133945,54.1197656 68.1684727,55.375043 68.1684727,56.9179922 L68.1684727,66.2944219 C68.1684727,67.3945078 69.060375,68.2866094 70.1606602,68.2866094 C71.2609453,68.2866094 72.1528477,67.3945078 72.1528477,66.2944219 L72.1528477,60.4475508 C72.1528477,58.9048008 73.408125,57.6495234 74.950875,57.6495234 C76.493625,57.6495234 77.7489023,58.9048008 77.7489023,60.4475508 L77.7489023,77.2574297 C77.7489023,81.7366641 77.069168,86.1752578 75.7288242,90.4492969 L72.9186445,99.4105547 C72.5895352,100.460438 73.1736445,101.578453 74.2235273,101.907563 C74.4219492,101.969918 74.6225625,101.999402 74.8201875,101.999402 C75.6676641,101.999203 76.453582,101.454141 76.7205352,100.60268 L79.5307148,91.6414219 C80.9921836,86.9808984 81.7332773,82.1412773 81.7332773,77.2574297 L81.7332773,60.4475508 C81.7334766,56.7082148 78.6910078,53.6655469 74.9510742,53.6655469 Z" id="Path"></path>
                            <path d="M101.832855,10.5643711 C101.435215,9.34136719 100.397484,8.46699609 99.1246758,8.28232031 L93.0228047,7.39758984 L90.2925117,1.86887109 C89.7233438,0.715992187 88.5710625,0 87.2855039,0 C87.2853047,0 87.2849063,0 87.284707,0 C85.9985508,0.00019921875 84.8462695,0.716988281 84.2775,1.87046484 L81.5501953,7.40037891 L75.4487227,8.28869531 C74.1761133,8.47396875 73.1387812,9.3489375 72.7419375,10.5723398 C72.3448945,11.795543 72.6706172,13.1127773 73.5916055,14.0100586 L78.0080859,18.3127852 L76.9673672,24.3901523 C76.750418,25.6577812 77.2620117,26.9146523 78.3025313,27.6700898 C78.8902266,28.0970156 79.5777305,28.3135664 80.2698164,28.3135664 C80.803125,28.3135664 81.3392227,28.1848711 81.8344805,27.9244922 L87.2912812,25.05375 L92.7496758,27.9217031 C93.8880117,28.5201562 95.2415039,28.4217422 96.281625,27.6653086 C97.3217461,26.9090742 97.8327422,25.6522031 97.6147969,24.3845742 L96.5708906,18.3078047 L100.98498,14.0028867 C101.90557,13.1048086 102.230496,11.7871758 101.832855,10.5643711 Z M93.5519297,15.6866836 C92.7612305,16.4574609 92.401043,17.5675078 92.5881094,18.6556406 L93.4718437,23.8000664 L88.8511641,21.3723867 C87.8735977,20.8584023 86.7065742,20.859 85.7294062,21.3729844 L81.1099219,23.8032539 L81.9910664,18.6580313 C82.1771367,17.5698984 81.8163516,16.4604492 81.0254531,15.6898711 L77.2865156,12.0473555 L82.4522578,11.2955039 C83.5445742,11.1363281 84.4884727,10.4502188 84.9767578,9.45990234 L87.2857031,4.77866016 L89.5970391,9.45850781 C90.0859219,10.448625 91.0300195,11.1341367 92.1229336,11.2929141 L97.2886758,12.0421758 L93.5519297,15.6866836 Z" id="Shape" fill-rule="nonzero"></path>
                            <path d="M65.5449609,10.5643711 C65.1473203,9.34136719 64.1097891,8.46679688 62.8369805,8.28232031 L56.7351094,7.39758984 L54.0048164,1.86887109 C53.4354492,0.715992188 52.2833672,0 50.9976094,0 C50.9974102,0 50.9970117,0 50.9966133,0 C49.7106563,0.00019921875 48.558375,0.716988281 47.9896055,1.87046484 L45.2623008,7.40037891 L39.1608281,8.28869531 C37.8882188,8.47396875 36.8508867,9.3489375 36.454043,10.5723398 C36.057,11.795543 36.3827227,13.1127773 37.3037109,14.0100586 L41.7199922,18.3125859 L40.6792734,24.3899531 C40.4623242,25.657582 40.973918,26.9144531 42.0144375,27.6698906 C42.6021328,28.0968164 43.2896367,28.3133672 43.9817227,28.3133672 C44.5150313,28.3133672 45.0511289,28.1846719 45.5463867,27.924293 L51.0033867,25.05375 L56.4617813,27.9215039 C57.6001172,28.519957 58.9536094,28.421543 59.9937305,27.6651094 C61.0338516,26.908875 61.5448477,25.6520039 61.3269023,24.384375 L60.2829961,18.3076055 L64.6970859,14.0026875 C65.6176758,13.1048086 65.9426016,11.787375 65.5449609,10.5643711 Z M57.2642344,15.6866836 C56.4737344,16.4572617 56.1135469,17.5671094 56.3004141,18.6556406 L57.1841484,23.8000664 L52.5634687,21.3723867 C51.5857031,20.8586016 50.4184805,20.8588008 49.4417109,21.3729844 L44.8220273,23.8032539 L45.7031719,18.6580313 C45.8892422,17.5696992 45.528457,16.46025 44.7375586,15.6898711 L40.9988203,12.0473555 L46.1643633,11.2955039 C47.2566797,11.1363281 48.2005781,10.4502188 48.6890625,9.45990234 L50.9980078,4.77846094 L53.3093438,9.45850781 C53.7980273,10.4484258 54.742125,11.1341367 55.8352383,11.2929141 L61.0009805,12.0421758 L57.2642344,15.6866836 Z" id="Shape" fill-rule="nonzero"></path>
                            <path d="M29.2572656,10.5643711 C28.859625,9.34136719 27.8218945,8.46699609 26.5490859,8.28232031 L20.4472148,7.39758984 L17.7171211,1.86887109 C17.1477539,0.715992187 15.9956719,0 14.7099141,0 C14.7097148,0 14.7093164,0 14.708918,0 C13.4229609,0.00019921875 12.2706797,0.716988281 11.7019102,1.87046484 L8.97460547,7.40037891 L2.87313281,8.28869531 C1.60052344,8.47396875 0.563390625,9.3489375 0.166347656,10.5721406 C-0.230695312,11.7953437 0.0946289062,13.1125781 1.01581641,14.0100586 L5.43229687,18.3127852 L4.39157813,24.3901523 C4.17462891,25.6577812 4.68622266,26.9146523 5.72674219,27.6702891 C6.31463672,28.0970156 7.00194141,28.3137656 7.69422656,28.3135664 C8.22753516,28.3135664 8.76363281,28.1848711 9.25889063,27.9244922 L14.7158906,25.0539492 L20.1742852,27.9217031 C21.3128203,28.5197578 22.6661133,28.421543 23.7062344,27.6655078 C24.7463555,26.9090742 25.2571523,25.6518047 25.0394062,24.384375 L23.9955,18.3076055 L28.4095898,14.0026875 C29.3299805,13.1048086 29.6549062,11.787375 29.2572656,10.5643711 Z M20.9765391,15.6864844 C20.1858398,16.4570625 19.8254531,17.5671094 20.0125195,18.6556406 L20.8962539,23.8000664 L16.2757734,21.3723867 C15.298207,20.8586016 14.1309844,20.8588008 13.1540156,21.3729844 L8.53413281,23.8034531 L9.41507812,18.6586289 C9.60154687,17.5704961 9.24076172,16.4608477 8.44966406,15.6900703 L4.711125,12.0473555 L9.87666797,11.2955039 C10.9689844,11.1363281 11.9128828,10.4502187 12.401168,9.45990234 L14.7101133,4.77846094 L17.0214492,9.45850781 C17.5101328,10.4484258 18.4542305,11.1341367 19.5473437,11.2929141 L24.7132852,12.0421758 L20.9765391,15.6864844 Z" id="Shape" fill-rule="nonzero"></path>
                            <path d="M42.8282461,48.4360547 C42.4576992,48.0653086 41.9439141,47.8523438 41.4197695,47.8523438 C40.8958242,47.8523438 40.3818398,48.0653086 40.011293,48.4360547 C39.6407461,48.8068008 39.427582,49.3203867 39.427582,49.8445313 C39.427582,50.3684766 39.6407461,50.8824609 40.011293,51.2528086 C40.3818398,51.6233555 40.8958242,51.8367188 41.4197695,51.8367188 C41.9437148,51.8367188 42.4576992,51.6235547 42.8282461,51.2528086 C43.198793,50.8824609 43.411957,50.3684766 43.411957,49.8445313 C43.411957,49.3201875 43.198793,48.8064023 42.8282461,48.4360547 Z" id="Path"></path>
                        </g>
                    </g>
                </g>
            </g>
        </g>
    </g>
</svg>