<?xml version="1.0" encoding="UTF-8"?>
<svg width="103px" height="111px" viewBox="0 0 103 111" version="1.1" xmlns="http://www.w3.org/2000/svg" xmlns:xlink="http://www.w3.org/1999/xlink">
    <!-- Generator: sketchtool 52.4 (67378) - http://www.bohemiancoding.com/sketch -->
    <title>5D558EB8-676F-4543-9C0E-D440552F1D19</title>
    <desc>Created with sketchtool.</desc>
    <g id="Page-1" stroke="none" stroke-width="1" fill="none" fill-rule="evenodd">
        <g id="Full-HD-" transform="translate(-1584.000000, -3460.000000)">
            <g id="Group-16" transform="translate(102.000000, 2920.000000)">
                <g id="Group-13-Copy-13" transform="translate(1334.000000, 540.000000)">
                    <g id="Group-12" transform="translate(148.000000, 0.000000)">
                        <circle id="Oval" fill="#F2EE18" cx="48.6" cy="23.6" r="23.6"></circle>
                        <g id="car" transform="translate(0.000000, 11.000000)" fill="#000000">
                            <path d="M33.2,48 C34.3039062,48 35.2,47.1039062 35.2,46 C35.2,44.9015624 34.309375,44 33.2,44 C32.0960938,44 31.2,44.8960938 31.2,46 C31.2,47.0960938 32.090625,48 33.2,48 Z" id="Path"></path>
                            <path d="M47.9242188,27.5117188 C48.3,27.8375 48.7671876,28 49.234375,28 C49.7007812,28 50.1679688,27.8375 50.54375,27.5117188 C58.7648438,20.3875 65.0796876,16.19375 65.0796876,9.515625 C65.0796876,4.1796876 61.1601562,0 56.15625,0 C52.7914062,0 50.596875,1.8039062 49.234375,3.6390624 C47.8710938,1.8039062 45.6757812,0 42.3101562,0 C37.3070312,0 33.3882812,4.1796876 33.3882812,9.515625 C33.3882812,16.196875 39.7015624,20.3859376 47.9242188,27.5117188 Z M37.3882812,9.515625 C37.3882812,6.3710938 39.5039062,4 42.3101562,4 C45.9515624,4 47.2492188,8.334375 47.3085938,8.5414062 C47.5515624,9.4039062 48.3375,10 49.234375,10 C50.1328124,10 50.9210938,9.4 51.1617188,8.5335938 C51.1742188,8.4882812 52.4601562,4 56.15625,4 C58.9632812,4 61.0796876,6.3710938 61.0796876,9.515625 C61.0796876,13.8742188 56.4046876,17.2390624 49.234375,23.3625 C42.034375,17.2148438 37.3882812,13.8601562 37.3882812,9.515625 Z" id="Shape" fill-rule="nonzero"></path>
                            <path d="M85.0570312,60.7859376 C83.4015624,42.2742188 67.5945312,32 49.2,32 C30.0460938,32 14.0875,43.2414062 13.2359376,62.378125 C6.4703124,65.7765624 -2.84217094e-14,72.9335938 -2.84217094e-14,82 L-2.84217094e-14,90 C-2.84217094e-14,91.1046876 0.8953124,92 2,92 L14.5492188,92 C16.8460938,96.8375 21.7617188,100 27.2,100 C32.6382812,100 37.5539062,96.8375 39.8507812,92 L62.5492188,92 C64.8460938,96.8375 69.7617188,100 75.2,100 C80.6382812,100 85.5539062,96.8375 87.8507812,92 L100.4,92 C101.504688,92 102.4,91.1046876 102.4,90 L102.4,82 C102.4,72.0210938 94.6351562,63.384375 85.0570312,60.7859376 Z M4,83.9976562 L13.3445312,83.9976562 C13.2507812,84.6570312 13.2,85.3265624 13.2,86 C13.2,86.6734376 13.2507812,87.340625 13.3445312,88 L4,88 L4,83.9976562 Z M27.2,96 C21.7445312,96 17.2,91.5867188 17.2,86 C17.2,80.4125 21.7453124,76 27.2,76 C32.6546876,76 37.2,80.4125 37.2,86 C37.2,91.5875 32.6546876,96 27.2,96 Z M61.3445312,88 L41.0554688,88 C41.15,87.340625 41.2,86.6734376 41.2,86 C41.2,85.3265624 41.1492188,84.6570312 41.0554688,83.9976562 L61.3445312,83.9976562 C61.2507812,84.6570312 61.2,85.3265624 61.2,86 C61.2,86.6734376 61.2507812,87.340625 61.3445312,88 Z M75.2,96 C69.7445312,96 65.2,91.5867188 65.2,86 C65.2,80.4125 69.7453124,76 75.2,76 C80.6546876,76 85.2,80.4125 85.2,86 C85.2,91.5875 80.6546876,96 75.2,96 Z M89.0554688,88 C89.15,87.340625 89.2,86.6734376 89.2,86 C89.2,85.3265624 89.1492188,84.659375 89.0554688,84 L98.4,84 L98.4,88 L89.0554688,88 Z M87.8507812,80 C85.5539062,75.1625 80.6382812,72 75.2,72 C69.7617188,72 64.8460938,75.1625 62.5492188,80 L39.8507812,80 C37.5539062,75.1625 32.6382812,72 27.2,72 C21.7617188,72 16.8460938,75.1625 14.5492188,80 L4.1390624,80 C5.0882812,73.196875 10.7289062,67.8007812 16.0023438,65.496875 C16.7242188,65.18125 17.1945312,64.4710938 17.2015624,63.6828124 C17.3867188,44.5601562 33.40625,36 49.2,36 C67.5828124,36 80.428125,46.64375 81.1640624,62.4851562 C81.2070312,63.4015624 81.8679688,64.171875 82.7679688,64.3523438 C89.8773438,65.7828124 97.2132812,71.9023438 98.2703124,80 L87.8507812,80 Z" id="Shape" fill-rule="nonzero"></path>
                            <path d="M75.2,80 C71.8914062,80 69.2,82.6914062 69.2,86 C69.2,89.3085938 71.8914062,92 75.2,92 C78.5085938,92 81.2,89.3085938 81.2,86 C81.2,82.6914062 78.5085938,80 75.2,80 Z M75.2,88 C74.096875,88 73.2,87.103125 73.2,86 C73.2,84.896875 74.096875,84 75.2,84 C76.303125,84 77.2,84.896875 77.2,86 C77.2,87.103125 76.303125,88 75.2,88 Z" id="Shape" fill-rule="nonzero"></path>
                            <path d="M27.2,80 C23.8914062,80 21.2,82.6914062 21.2,86 C21.2,89.3085938 23.8914062,92 27.2,92 C30.5085938,92 33.2,89.3085938 33.2,86 C33.2,82.6914062 30.5085938,80 27.2,80 Z M27.2,88 C26.096875,88 25.2,87.103125 25.2,86 C25.2,84.896875 26.096875,84 27.2,84 C28.303125,84 29.2,84.896875 29.2,86 C29.2,87.103125 28.303125,88 27.2,88 Z" id="Shape" fill-rule="nonzero"></path>
                            <path d="M53.409375,40.2507812 C52.2296876,40.1273438 51.2,41.0523438 51.2,42.2398438 L51.2,62 C51.2,63.1046876 52.0953124,64 53.2,64 L75.0796876,64 C76.240625,64 77.1601562,63.0125 77.0742188,61.853125 C76.1257812,48.9984376 66.1601562,41.590625 53.409375,40.2507812 Z M55.2,60 L55.2,44.5476562 C60.671875,45.5398438 70.8625,48.878125 72.8203124,60 L55.2,60 Z" id="Shape" fill-rule="nonzero"></path>
                            <path d="M44.9734376,40.253125 C43.3289062,40.440625 41.70625,40.7359376 40.1507812,41.1320312 C39.0804688,41.4039062 38.4335938,42.4929688 38.7054688,43.5632812 C38.978125,44.6335938 40.0671876,45.2804688 41.1375,45.0085938 C41.8117188,44.8367188 42.5007812,44.6867188 43.2,44.5578124 L43.2,60 L25.59375,60 C26.109375,57.2078124 27.1976562,54.7109376 28.8398438,52.5570312 C29.5101562,51.6789062 29.340625,50.4234376 28.4625,49.7539062 C27.584375,49.0835938 26.3296876,49.253125 25.659375,50.13125 C23.0242188,53.5867188 21.628125,57.6546876 21.325,61.85625 C21.2414062,63.0125 22.1578124,64 23.3195312,64 L45.2,64 C46.3046876,64 47.2,63.1046876 47.2,62 L47.2,42.2398438 C47.2,41.046875 46.1601562,40.1171876 44.9734376,40.253125 Z" id="Path"></path>
                        </g>
                    </g>
                </g>
            </g>
        </g>
    </g>
</svg>