<?xml version="1.0" encoding="UTF-8"?>
<svg width="124px" height="80px" viewBox="0 0 124 80" version="1.1" xmlns="http://www.w3.org/2000/svg" xmlns:xlink="http://www.w3.org/1999/xlink">
    <!-- Generator: sketchtool 52.4 (67378) - http://www.bohemiancoding.com/sketch -->
    <title>602E2B7D-2F0F-4ADF-8884-C86DB2ACDF35</title>
    <desc>Created with sketchtool.</desc>
    <g id="Page-1" stroke="none" stroke-width="1" fill="none" fill-rule="evenodd">
        <g id="Full-HD-" transform="translate(-1580.000000, -3105.000000)">
            <g id="Group-16" transform="translate(102.000000, 2920.000000)">
                <g id="Group-9" transform="translate(1334.000000, 185.000000)">
                    <g id="Group-12" transform="translate(144.000000, 0.000000)">
                        <circle id="Oval" fill="#F2EE18" cx="49.6" cy="30.6" r="30.6"></circle>
                        <g id="delivery-truck" fill="#000000">
                            <path d="M122.874624,48.401732 L102.713667,22.1762048 C102.257154,21.5832077 101.551205,21.235881 100.802899,21.235881 L88.6746988,21.235881 L88.6746988,2.40963855 C88.6746988,1.07868964 87.5960092,0 86.2650602,0 L64.4578313,0 C63.1268824,0 62.0481928,1.07868964 62.0481928,2.40963855 C62.0481928,3.74058747 63.1268824,4.81927711 64.4578313,4.81927711 L83.8554217,4.81927711 L83.8554217,67.4698795 L51.8034639,67.4698795 C50.4565135,64.0860316 47.1507906,61.686747 43.2934865,61.686747 C40.6259412,61.686747 38.2210092,62.8341492 36.5464986,64.6602034 C34.8710467,62.8341492 32.4670557,61.686747 29.7995106,61.686747 C25.9412651,61.686747 22.6355422,64.0860316 21.289533,67.4698795 L12.9000376,67.4698795 L12.9000376,42.2571537 L26.690512,42.2571537 L26.690512,47.4679971 C26.690512,50.525226 29.1782757,53.0120482 32.2345634,53.0120482 L64.5199547,53.0120482 C67.5771836,53.0120482 70.064006,50.525226 70.064006,47.4679971 L70.064006,15.1826053 C70.064006,12.1253764 67.5771836,9.63855422 64.5199547,9.63855422 L32.2345634,9.63855422 C29.1782757,9.63855422 26.690512,12.1253764 26.690512,15.1826053 L26.690512,25.8716116 L19.7025602,25.8716116 C18.3725528,25.8716116 17.2929217,26.9512424 17.2929217,28.2812501 C17.2929217,29.6121988 18.3725528,30.6908887 19.7025602,30.6908887 L26.690512,30.6908887 L26.690512,37.4378766 L12.9000376,37.4378766 L12.9000376,4.81927711 L46.3450677,4.81927711 C47.6760166,4.81927711 48.7547063,3.74058747 48.7547063,2.40963855 C48.7547063,1.07868964 47.6760166,0 46.3450677,0 L10.490399,0 C9.15945036,0 8.08076048,1.07868964 8.08076048,2.40963855 L8.08076048,37.4378766 L2.40963855,37.4378766 C1.07868964,37.4378766 0,38.5175075 0,39.8475152 C0,41.1784639 1.07868964,42.2571537 2.40963855,42.2571537 L8.08076048,42.2571537 L8.08076048,69.8795181 C8.08076048,71.210467 9.15945036,72.2891566 10.490399,72.2891566 L20.7577183,72.2891566 C21.4533133,76.6538027 25.2419051,80 29.7995106,80 C32.4670557,80 34.8710467,78.8525978 36.5464986,77.0265436 C38.2210092,78.8525978 40.6259412,80 43.2934865,80 C47.8501506,80 51.6396839,76.6538027 52.3343373,72.2891566 L93.6088101,72.2891566 C94.3044051,76.6538027 98.0939383,80 102.650602,80 C107.207267,80 110.9968,76.6538027 111.692395,72.2891566 L120.963855,72.2891566 C122.294804,72.2891566 123.373494,71.210467 123.373494,69.8795181 L123.373494,49.8701055 C123.373494,49.3392318 123.197477,48.8224773 122.874624,48.401732 Z M52.0557229,14.4578313 L52.0557229,25.8716116 L44.6997364,25.8716116 L44.6997364,14.4578313 L52.0557229,14.4578313 Z M31.5107304,15.1826053 C31.5107304,14.7835089 31.835467,14.4578313 32.2355046,14.4578313 L39.8804593,14.4578313 L39.8804593,28.2812501 C39.8804593,29.6121988 40.9600904,30.6908887 42.2900978,30.6908887 L54.4653614,30.6908887 C55.7963104,30.6908887 56.875,29.6121988 56.875,28.2812501 L56.875,14.4578313 L64.5208961,14.4578313 C64.9199925,14.4578313 65.2456701,14.7835089 65.2456701,15.1826053 L65.2456701,47.4679971 C65.2456701,47.8670935 64.9199925,48.1927711 64.5208961,48.1927711 L32.2345634,48.1927711 C31.835467,48.1927711 31.5097892,47.8670935 31.5097892,47.4679971 L31.5097892,15.1826053 L31.5107304,15.1826053 Z M118.554217,50.689006 L118.554217,52.0481928 L100.722892,52.0481928 C99.3938253,52.0481928 98.313253,50.9676205 98.313253,49.6385542 L98.313253,26.0551581 L99.6159639,26.0551581 L118.554217,50.689006 Z M29.7995106,75.1807229 C27.4077561,75.1807229 25.4621612,73.235128 25.4621612,70.8433735 C25.4621612,68.451619 27.4077561,66.5060241 29.7995106,66.5060241 C32.1912651,66.5060241 34.13686,68.451619 34.13686,70.8433735 C34.13686,73.235128 32.1912651,75.1807229 29.7995106,75.1807229 Z M43.2934865,75.1807229 C40.901732,75.1807229 38.9561371,73.235128 38.9561371,70.8433735 C38.9561371,68.451619 40.901732,66.5060241 43.2934865,66.5060241 C45.685241,66.5060241 47.6308359,68.451619 47.6308359,70.8433735 C47.6308359,73.235128 45.685241,75.1807229 43.2934865,75.1807229 Z M102.650602,75.1807229 C100.258848,75.1807229 98.313253,73.235128 98.313253,70.8433735 C98.313253,68.451619 100.258848,66.5060241 102.650602,66.5060241 C105.042357,66.5060241 106.987952,68.451619 106.987952,70.8433735 C106.987952,73.235128 105.042357,75.1807229 102.650602,75.1807229 Z M111.16058,67.4698795 C109.814571,64.0860316 106.508848,61.686747 102.650602,61.686747 C98.7923569,61.686747 95.486634,64.0860316 94.1406251,67.4698795 L88.6746988,67.4698795 L88.6746988,26.0551581 L93.4939759,26.0551581 L93.4939759,49.6385542 C93.4939759,53.6248118 96.736634,56.8674699 100.722892,56.8674699 L118.554217,56.8674699 L118.554217,67.4698795 L111.16058,67.4698795 Z" id="Shape" fill-rule="nonzero"></path>
                            <path d="M52.4199925,42.866152 L59.0643827,42.866152 C60.3953313,42.866152 61.4740212,41.7874624 61.4740212,40.4565135 C61.4740212,39.1255648 60.3953313,38.0468749 59.0643827,38.0468749 L52.4199925,38.0468749 C51.0899851,38.0468749 50.010354,39.1255648 50.010354,40.4565135 C50.010354,41.7874624 51.0890436,42.866152 52.4199925,42.866152 Z" id="Path"></path>
                            <path d="M55.7417169,4.81927711 C56.378012,4.81927711 56.9973643,4.5613706 57.4454067,4.11332819 C57.8962725,3.66528627 58.1513554,3.04310988 58.1513554,2.40963855 C58.1513554,1.77616723 57.8962725,1.15399084 57.4454067,0.705948916 C56.9973643,0.257906506 56.378012,0 55.7417169,0 C55.1082455,0 54.4870106,0.257906506 54.0389684,0.705948916 C53.5899851,1.15399084 53.3320783,1.77616723 53.3320783,2.40963855 C53.3320783,3.04310988 53.5899851,3.66528627 54.0389684,4.11332819 C54.4870106,4.5613706 55.1082455,4.81927711 55.7417169,4.81927711 Z" id="Path"></path>
                        </g>
                    </g>
                </g>
            </g>
        </g>
    </g>
</svg>