<?xml version="1.0" encoding="UTF-8"?>
<svg width="100px" height="103px" viewBox="0 0 100 103" version="1.1" xmlns="http://www.w3.org/2000/svg" xmlns:xlink="http://www.w3.org/1999/xlink">
    <!-- Generator: sketchtool 52.4 (67378) - http://www.bohemiancoding.com/sketch -->
    <title>788FB036-A7FB-41FF-B717-6F108D3B5EB2</title>
    <desc>Created with sketchtool.</desc>
    <g id="Page-1" stroke="none" stroke-width="1" fill="none" fill-rule="evenodd">
        <g id="Full-HD-" transform="translate(-693.000000, -3471.000000)">
            <g id="Group-16" transform="translate(102.000000, 2920.000000)">
                <g id="Group-13-Copy-11" transform="translate(440.000000, 551.000000)">
                    <g id="Group-12" transform="translate(151.000000, 0.000000)">
                        <circle id="Oval" fill="#F2EE18" cx="51.6" cy="22.6" r="22.6"></circle>
                        <g id="package" transform="translate(0.000000, 3.000000)" fill="#000000">
                            <path d="M30.4091618,72.1251462 C29.3331384,72.1251462 28.4598441,72.9984405 28.4598441,74.0744639 C28.4598441,75.1504873 29.3331384,76.0237817 30.4091618,76.0237817 C31.4851852,76.0237817 32.3584795,75.1504873 32.3584795,74.0744639 C32.3584795,72.9984405 31.4851852,72.1251462 30.4091618,72.1251462 Z" id="Path"></path>
                            <path d="M87.7471735,37.037232 L99.234308,25.5500975 C99.7175439,25.0668616 99.9122807,24.3658869 99.7479532,23.702729 C99.5836257,23.0393762 99.0838207,22.5107212 98.4307992,22.3091618 L70.4580897,13.6756335 C67.9364522,5.57017544 60.4417154,0.000389863548 51.8516569,0.000389863548 C43.8664717,0.000389863548 36.7249513,4.8668616 33.7692008,12.2079922 L1.36881092,22.3109162 C0.71754386,22.5140351 0.219688109,23.0430799 0.0565302144,23.705653 C-0.10662768,24.3680312 0.0883040936,25.0678363 0.570760234,25.5502924 L12.360039,37.3395712 L4.9245614,49.7323587 C4.6202729,50.2393762 4.56276803,50.857115 4.76783626,51.4116959 C4.97290448,51.9662768 5.41871345,52.3976608 5.9797271,52.5846004 L16.7639376,56.1791423 L16.7639376,86.160039 C16.7639376,86.9725146 17.2680312,87.6998051 18.0288499,87.9851852 C24.622807,90.4576998 49.122807,99.6463938 49.254386,99.6929825 C49.6411306,99.8292398 50.0768031,99.8477583 50.5015595,99.7103314 C50.5072125,99.7083821 50.5130604,99.7072125 50.5187135,99.7052632 L85.6064327,88.0093567 C86.4023392,87.7440546 86.9393762,86.9990253 86.9393762,86.160039 L86.9393762,55.3764133 L98.439961,51.7623782 C99.0902534,51.5580897 99.5865497,51.0290448 99.7489279,50.3670565 C99.9111111,49.7050682 99.7159844,49.0064327 99.2341131,48.5243665 L87.7471735,37.037232 Z M71.3448343,19.4935673 C71.3448343,18.9982456 71.3239766,18.5040936 71.2867446,18.011501 L94.1900585,25.0807018 L84.4635478,34.8070175 L68.5711501,29.5101365 C70.3707602,26.5021442 71.3448343,23.0311891 71.3448343,19.4935673 Z M37.1005848,14.419883 C39.2645224,8.12709552 45.1925926,3.89902534 51.8516569,3.89902534 C59.0253411,3.89902534 65.2471735,8.75126706 66.9818713,15.6986355 C67.2900585,16.9331384 67.4461988,18.2099415 67.4461988,19.4935673 C67.4461988,23.11423 66.2446394,26.5077973 63.9709552,29.3087719 C60.9929825,32.9816764 56.5756335,35.0881092 51.8516569,35.0881092 C46.7452242,35.0881092 41.9555556,32.5816764 39.0382066,28.3816764 C37.2189084,25.7684211 36.257115,22.6947368 36.257115,19.4935673 C36.257115,17.7526316 36.5407407,16.045614 37.1005848,14.419883 Z M5.60701754,25.0730994 L32.5660819,16.6668616 C32.4307992,17.5982456 32.3584795,18.5417154 32.3584795,19.4933723 C32.3584795,22.6319688 33.1019493,25.6719298 34.5191033,28.4148148 L15.3411306,34.8070175 L5.60701754,25.0730994 Z M9.51793372,49.654386 L15.6816764,39.3810916 L46.9805068,49.8140351 L40.8169591,60.0873294 C37.4748538,58.9732943 13.0863548,50.8436647 9.51793372,49.654386 Z M47.9530214,95.0432749 L20.6625731,84.8093567 L20.6625731,57.4787524 C42.134308,64.5980507 41.08577,64.3807018 41.6836257,64.3807018 C42.3538012,64.3807018 42.9955166,64.0339181 43.3555556,63.4341131 L47.9530214,55.7711501 L47.9530214,95.0432749 Z M49.9023392,46.6785575 L20.9791423,37.0376218 L36.72846,31.7881092 C40.4146199,36.3196881 45.9637427,38.9867446 51.8516569,38.9867446 C57.2984405,38.9867446 62.4175439,36.7452242 66.0996101,32.7959064 L78.8255361,37.0374269 L49.9023392,46.6785575 Z M83.0407407,84.7551657 L51.8516569,95.151462 L51.8516569,54.2898635 L58.7621832,62.9272904 C59.2649123,63.5555556 60.1017544,63.8101365 60.8688109,63.5692008 L83.0407407,56.6017544 L83.0407407,84.7551657 Z M60.9729045,59.4500975 L53.1709552,49.6984405 L84.4635478,39.2676413 L94.2031189,49.0072125 L60.9729045,59.4500975 Z" id="Shape" fill-rule="nonzero"></path>
                            <path d="M42.7896686,76.4518519 L38.454386,74.8261209 C37.4463938,74.4483431 36.322807,74.9588694 35.9446394,75.9668616 C35.5666667,76.9750487 36.0773879,78.0986355 37.0853801,78.4766082 L41.4206628,80.1023392 C42.4307992,80.4808967 43.5530214,79.9678363 43.9304094,78.9615984 C44.3083821,77.9536062 43.7976608,76.8298246 42.7896686,76.4518519 Z" id="Path"></path>
                            <path d="M42.7894737,84.7793372 L31.0935673,80.3933723 C30.085575,80.0153996 28.9619883,80.5261209 28.5838207,81.5341131 C28.205653,82.5421053 28.7165692,83.6658869 29.7245614,84.0438596 L41.4204678,88.4298246 C41.6460039,88.514425 41.877193,88.5545809 42.1046784,88.5545809 C42.8939571,88.5545809 43.6366472,88.0717349 43.9302144,87.2890838 C44.3083821,86.2808967 43.7976608,85.1573099 42.7894737,84.7793372 Z" id="Path"></path>
                            <path d="M62.9768031,12.2670565 C62.2155945,11.505653 60.9812865,11.505848 60.219883,12.2670565 L49.9023392,22.5847953 L47.3820663,20.0645224 C46.6208577,19.3033138 45.3865497,19.3033138 44.6251462,20.0645224 C43.8637427,20.825731 43.8639376,22.060039 44.6251462,22.8214425 L48.5239766,26.719883 C49.2851852,27.4810916 50.5194932,27.4810916 51.2808967,26.719883 L62.9768031,15.0239766 C63.7380117,14.262768 63.7380117,13.02846 62.9768031,12.2670565 Z" id="Path"></path>
                        </g>
                    </g>
                </g>
            </g>
        </g>
    </g>
</svg>