<?xml version="1.0" encoding="UTF-8"?>
<svg width="85px" height="100px" viewBox="0 0 85 100" version="1.1" xmlns="http://www.w3.org/2000/svg" xmlns:xlink="http://www.w3.org/1999/xlink">
    <!-- Generator: sketchtool 52.4 (67378) - http://www.bohemiancoding.com/sketch -->
    <title>2E9AE7CE-9264-4E52-B748-7A332690D344</title>
    <desc>Created with sketchtool.</desc>
    <g id="Page-1" stroke="none" stroke-width="1" fill="none" fill-rule="evenodd">
        <g id="Full-HD-" transform="translate(-1140.000000, -3475.000000)">
            <g id="Group-16" transform="translate(102.000000, 2920.000000)">
                <g id="Group-13-Copy-12" transform="translate(887.000000, 555.000000)">
                    <g id="Group-12" transform="translate(151.000000, 0.000000)">
                        <circle id="Oval" fill="#F2EE18" cx="23.1" cy="27.1" r="20.1"></circle>
                        <g id="profiles" fill="#000000">
                            <path d="M63.4642578,0 L6.04238281,0 C2.81152344,0 0.183007813,2.62851562 0.183007813,5.859375 L0.183007813,25.78125 C0.183007813,26.8599609 1.05761719,27.734375 2.13613281,27.734375 C3.21464844,27.734375 4.08925781,26.8599609 4.08925781,25.78125 L4.08925781,5.859375 C4.08925781,4.78242188 4.96542969,3.90625 6.04238281,3.90625 L63.4642578,3.90625 C64.5412109,3.90625 65.4173828,4.78242188 65.4173828,5.859375 L65.4173828,78.515625 C65.4173828,79.5925781 64.5412109,80.46875 63.4642578,80.46875 L6.04238281,80.46875 C4.96542969,80.46875 4.08925781,79.5925781 4.08925781,78.515625 L4.08925781,42.2525391 C4.08925781,41.1738281 3.21464844,40.2994141 2.13613281,40.2994141 C1.05761719,40.2994141 0.183007813,41.1738281 0.183007813,42.2525391 L0.183007813,78.515625 C0.183007813,81.7464844 2.81152344,84.375 6.04238281,84.375 L63.4642578,84.375 C66.6951172,84.375 69.3236328,81.7464844 69.3236328,78.515625 L69.3236328,5.859375 C69.3236328,2.62851562 66.6951172,0 63.4642578,0 Z" id="Path"></path>
                            <path d="M3.51679688,33.1445312 C3.15371094,32.78125 2.64980469,32.5742188 2.13613281,32.5742188 C1.62246094,32.5742188 1.11855469,32.78125 0.755273437,33.1445312 C0.391796875,33.5097656 0.183007812,34.0136719 0.183007812,34.5253906 C0.183007812,35.0410156 0.391992187,35.5429688 0.755273437,35.9082031 C1.11855469,36.2714844 1.62246094,36.4804688 2.13613281,36.4804688 C2.64960937,36.4804688 3.15351563,36.2714844 3.51679688,35.9082031 C3.88027344,35.5449219 4.08925781,35.0410156 4.08925781,34.5253906 C4.08925781,34.0117188 3.88007813,33.5097656 3.51679688,33.1445312 Z" id="Path"></path>
                            <path d="M11.3410156,88.8652344 C10.9777344,88.5019531 10.4759766,88.2929688 9.96015625,88.2929688 C9.44648438,88.2929688 8.94257813,88.5019531 8.57949219,88.8652344 C8.21601563,89.2285156 8.00703125,89.7324219 8.00703125,90.2460938 C8.00703125,90.7617188 8.21621094,91.2636719 8.57949219,91.6269531 C8.94257813,91.9921875 9.44648438,92.1992188 9.96015625,92.1992188 C10.4759766,92.1992188 10.9777344,91.9921875 11.3410156,91.6269531 C11.7044922,91.2636719 11.9132813,90.7617188 11.9132813,90.2460938 C11.9132813,89.7324219 11.7042969,89.2285156 11.3410156,88.8652344 Z" id="Path"></path>
                            <path d="M75.1953125,7.82480469 C74.1167969,7.82480469 73.2421875,8.69921875 73.2421875,9.77792969 L73.2421875,86.3404297 C73.2421875,87.4173828 72.3660156,88.2935547 71.2890625,88.2935547 L17.7734375,88.2935547 C16.6949219,88.2935547 15.8203125,89.1679688 15.8203125,90.2466797 C15.8203125,91.3253906 16.6949219,92.1998047 17.7734375,92.1998047 L71.2890625,92.1998047 C74.5199219,92.1998047 77.1484375,89.5712891 77.1484375,86.3404297 L77.1484375,9.77792969 C77.1484375,8.69921875 76.2738281,7.82480469 75.1953125,7.82480469 Z" id="Path"></path>
                            <path d="M83.0201172,15.625 C81.9416016,15.625 81.0669922,16.4994141 81.0669922,17.578125 L81.0669922,94.140625 C81.0669922,95.2175781 80.1908203,96.09375 79.1138672,96.09375 L17.7857422,96.09375 C16.7072266,96.09375 15.8326172,96.9681641 15.8326172,98.046875 C15.8326172,99.1255859 16.7072266,100 17.7857422,100 L79.1138672,100 C82.3447266,100 84.9732422,97.3714844 84.9732422,94.140625 L84.9732422,17.578125 C84.9732422,16.4994141 84.0986328,15.625 83.0201172,15.625 Z" id="Path"></path>
                            <path d="M31.8236328,14.453125 L13.0736328,14.453125 C11.9951172,14.453125 11.1205078,15.3275391 11.1205078,16.40625 L11.1205078,35.15625 C11.1205078,36.2349609 11.9951172,37.109375 13.0736328,37.109375 L31.8236328,37.109375 C32.9021484,37.109375 33.7767578,36.2349609 33.7767578,35.15625 L33.7767578,16.40625 C33.7767578,15.3275391 32.9021484,14.453125 31.8236328,14.453125 Z M29.8705078,33.203125 L15.0267578,33.203125 L15.0267578,18.359375 L29.8705078,18.359375 L29.8705078,33.203125 Z" id="Shape" fill-rule="nonzero"></path>
                            <path d="M25.5392578,45.9769531 C24.7763672,45.2144531 23.5400391,45.2142578 22.7769531,45.9769531 L17.5849609,51.1689453 L15.1708984,48.7546875 C14.4082031,47.9919922 13.171875,47.9921875 12.4085937,48.7546875 C11.6458984,49.5173828 11.6458984,50.7541016 12.4085937,51.5167969 L16.2039062,55.3121094 C16.5703125,55.6783203 17.0669922,55.8841797 17.5849609,55.8841797 C18.103125,55.8841797 18.5996094,55.6783203 18.9662109,55.3121094 L25.5392578,48.7390625 C26.3019531,47.9763672 26.3019531,46.7396484 25.5392578,45.9769531 Z" id="Path"></path>
                            <path d="M57.5398438,48.6328125 L34.7533203,48.6328125 C33.6748047,48.6328125 32.8001953,49.5072266 32.8001953,50.5859375 C32.8001953,51.6646484 33.6748047,52.5390625 34.7533203,52.5390625 L57.5398438,52.5390625 C58.6183594,52.5390625 59.4929688,51.6646484 59.4929688,50.5859375 C59.4929688,49.5072266 58.6183594,48.6328125 57.5398438,48.6328125 Z" id="Path"></path>
                            <path d="M56.4330078,14.453125 L42.7611328,14.453125 C41.6826172,14.453125 40.8080078,15.3275391 40.8080078,16.40625 C40.8080078,17.4849609 41.6826172,18.359375 42.7611328,18.359375 L56.4330078,18.359375 C57.5115234,18.359375 58.3861328,17.4849609 58.3861328,16.40625 C58.3861328,15.3275391 57.5115234,14.453125 56.4330078,14.453125 Z" id="Path"></path>
                            <path d="M56.4330078,23.828125 L42.7611328,23.828125 C41.6826172,23.828125 40.8080078,24.7025391 40.8080078,25.78125 C40.8080078,26.8599609 41.6826172,27.734375 42.7611328,27.734375 L56.4330078,27.734375 C57.5115234,27.734375 58.3861328,26.8599609 58.3861328,25.78125 C58.3861328,24.7025391 57.5115234,23.828125 56.4330078,23.828125 Z" id="Path"></path>
                            <path d="M56.4330078,33.203125 L42.7611328,33.203125 C41.6826172,33.203125 40.8080078,34.0775391 40.8080078,35.15625 C40.8080078,36.2349609 41.6826172,37.109375 42.7611328,37.109375 L56.4330078,37.109375 C57.5115234,37.109375 58.3861328,36.2349609 58.3861328,35.15625 C58.3861328,34.0775391 57.5115234,33.203125 56.4330078,33.203125 Z" id="Path"></path>
                            <path d="M25.5392578,60.8923828 C24.7763672,60.1298828 23.5400391,60.1296875 22.7769531,60.8923828 L17.5849609,66.084375 L15.1708984,63.6701172 C14.4082031,62.9074219 13.171875,62.9076172 12.4085937,63.6701172 C11.6458984,64.4328125 11.6458984,65.6695313 12.4085937,66.4322266 L16.2039062,70.2275391 C16.5703125,70.59375 17.0669922,70.7996094 17.5849609,70.7996094 C18.103125,70.7996094 18.5996094,70.59375 18.9662109,70.2275391 L25.5392578,63.6544922 C26.3019531,62.8917969 26.3019531,61.6550781 25.5392578,60.8923828 Z" id="Path"></path>
                            <path d="M57.5398438,63.4765625 L34.7533203,63.4765625 C33.6748047,63.4765625 32.8001953,64.3509766 32.8001953,65.4296875 C32.8001953,66.5083984 33.6748047,67.3828125 34.7533203,67.3828125 L57.5398438,67.3828125 C58.6183594,67.3828125 59.4929688,66.5083984 59.4929688,65.4296875 C59.4929688,64.3509766 58.6183594,63.4765625 57.5398438,63.4765625 Z" id="Path"></path>
                        </g>
                    </g>
                </g>
            </g>
        </g>
    </g>
</svg>