<?xml version="1.0" encoding="UTF-8"?>
<svg width="41px" height="54px" viewBox="0 0 41 54" version="1.1" xmlns="http://www.w3.org/2000/svg" xmlns:xlink="http://www.w3.org/1999/xlink">
    <!-- Generator: sketchtool 52.4 (67378) - http://www.bohemiancoding.com/sketch -->
    <title>DAC7FAFC-A181-4BB4-8ECF-BAB1D370D98D</title>
    <desc>Created with sketchtool.</desc>
    <g id="Page-1" stroke="none" stroke-width="1" fill="none" fill-rule="evenodd">
        <g id="Full-HD-" transform="translate(-1479.000000, -7904.000000)">
            <g id="Group-24" transform="translate(276.000000, 7111.000000)">
                <g id="Group-22" transform="translate(81.000000, 793.000000)">
                    <g id="flame" transform="translate(1122.000000, 0.000000)">
                        <path d="M8.11752202,49.0500352 C5.65531088,46.2375 3.19320466,43.3125352 1.62629534,39.825 C0.0594909326,36.1125 -0.388212435,31.8375352 0.395242228,27.7875352 C1.17869689,23.7375352 2.96930052,19.9125 5.54346373,16.6500352 C5.31966451,19.4625703 6.32691839,22.3875352 8.22947409,24.5250703 C7.11026813,19.1250703 8.90097668,13.2750352 12.4822889,9.00007031 C16.063601,4.72510547 20.9880233,1.91246484 26.1361399,0 C23.5620816,2.7 23.2263303,6.97496484 24.2335842,10.5750352 C25.2408381,14.175 27.3672979,17.3250352 29.2698536,20.5875 C31.1724093,23.8499648 32.9631179,27.2249648 33.0750699,30.9374648 C34.0823238,29.025 35.2015298,27.1124297 35.8730324,24.975 C36.544535,22.8374648 36.8802863,20.5875 36.3207358,18.4499648 C38.3352435,20.925 39.4544495,23.3999297 40.014,26.5499648 C40.5735505,29.7 40.4617034,32.9624648 40.1259521,36.1125 C39.6782487,39.6000352 38.7829469,43.2 36.8803912,46.1249648 C34.6420842,49.6125 31.0606671,52.0874297 27.1436036,53.4374297 C20.2045687,54.675 13.3775907,53.6625 8.11752202,49.0500352 Z" id="Path" fill="#F3705A"></path>
                        <path d="M16.6232565,53.2124648 C25.8003886,56.8125352 34.8656736,45.9 29.8294041,37.4625 C29.8294041,37.3499648 29.7174521,37.3499648 29.7174521,37.2375352 C30.1651554,41.85 29.0459495,45.225 26.9194896,47.1375703 C28.0386956,44.4375703 27.2552409,41.2875352 25.9122358,38.5875352 C24.5692306,36.0000703 22.6666749,33.6375703 21.2117176,31.1625352 C19.7567604,28.5750703 18.6376593,25.65 19.3091619,22.7250352 C16.6231516,24.7500352 14.7205959,27.7875352 13.9371412,31.05 C13.1536865,34.3124648 13.6013899,37.9125352 15.0563472,40.9500352 C13.3775907,39.7125703 12.1465376,37.6875703 12.0345855,35.5500352 C10.2438769,37.6875703 9.12477591,40.5 9.23662306,43.3125352 C9.23672798,47.7000352 12.7060881,51.6375 16.6232565,53.2124648 Z" id="Path" fill="#FFD15C"></path>
                    </g>
                </g>
            </g>
        </g>
    </g>
</svg>