<svg xmlns="http://www.w3.org/2000/svg" width="18" height="18" viewBox="0 0 18 18">
    <defs>
        <linearGradient id="a" x1="10.895%" x2="86.911%" y1="89.017%" y2="4.388%">
            <stop offset="0%" stop-color="#FFD523"/>
            <stop offset="29.541%" stop-color="#FB7412"/>
            <stop offset="51.772%" stop-color="#FA550B"/>
            <stop offset="69.841%" stop-color="#D90156"/>
            <stop offset="100%" stop-color="#B900B4"/>
        </linearGradient>
    </defs>
    <path fill="url(#a)" fill-rule="evenodd" d="M45 5.38c.83 0 1.6.207 2.31.622.71.415 1.273.978 1.688 1.688.415.71.623 1.48.623 2.31 0 .83-.208 1.6-.623 2.31a4.634 4.634 0 0 1-1.688 1.688c-.71.415-1.48.623-2.31.623-.83 0-1.6-.208-2.31-.623a4.634 4.634 0 0 1-1.688-1.688A4.496 4.496 0 0 1 40.38 10c0-.83.208-1.6.623-2.31a4.634 4.634 0 0 1 1.688-1.688A4.496 4.496 0 0 1 45 5.38zm0 7.633c.83 0 1.54-.294 2.13-.884.589-.589.883-1.299.883-2.129 0-.83-.294-1.54-.884-2.13-.589-.589-1.299-.883-2.129-.883-.83 0-1.54.294-2.13.884-.589.589-.883 1.299-.883 2.129 0 .83.294 1.54.884 2.13.589.589 1.299.883 2.129.883zm5.906-7.834c-.027.294-.14.549-.341.763a.978.978 0 0 1-.744.321c-.294 0-.549-.107-.763-.321a1.043 1.043 0 0 1-.321-.763c0-.295.107-.55.321-.764.214-.214.469-.321.763-.321.295 0 .55.107.764.321.214.214.321.469.321.764zm3.054 1.084c.027.75.04 1.996.04 3.737s-.02 2.993-.06 3.757c-.04.763-.154 1.426-.342 1.989a4.683 4.683 0 0 1-1.105 1.747 4.683 4.683 0 0 1-1.747 1.105c-.563.188-1.226.302-1.99.342-.763.04-2.015.06-3.756.06-1.741 0-2.993-.02-3.757-.06-.763-.04-1.426-.168-1.989-.382a4.283 4.283 0 0 1-1.747-1.065 4.683 4.683 0 0 1-1.105-1.747c-.188-.563-.302-1.226-.342-1.99-.04-.763-.06-2.015-.06-3.756 0-1.741.02-2.993.06-3.757.04-.763.154-1.426.342-1.989.24-.67.61-1.252 1.105-1.747a4.683 4.683 0 0 1 1.747-1.105c.563-.188 1.226-.302 1.99-.342C42.006 1.02 43.258 1 45 1c1.741 0 2.993.02 3.757.06.763.04 1.426.154 1.989.342.67.24 1.252.61 1.747 1.105a4.683 4.683 0 0 1 1.105 1.747c.188.563.308 1.233.362 2.01zm-1.929 9.04c.161-.455.268-1.178.322-2.17.026-.588.04-1.419.04-2.49V9.357c0-1.098-.014-1.928-.04-2.49-.054-1.019-.161-1.742-.322-2.17a2.9 2.9 0 0 0-1.727-1.728c-.429-.161-1.152-.268-2.17-.322a58.62 58.62 0 0 0-2.491-.04h-1.286a58.62 58.62 0 0 0-2.49.04c-.992.054-1.715.161-2.17.322a2.9 2.9 0 0 0-1.728 1.727c-.161.429-.268 1.152-.322 2.17-.026.59-.04 1.42-.04 2.491v1.286c0 1.071.014 1.902.04 2.49.054.992.161 1.715.322 2.17.348.83.924 1.407 1.727 1.728.456.161 1.179.268 2.17.322.59.026 1.42.04 2.491.04h1.286c1.098 0 1.928-.014 2.49-.04 1.019-.054 1.742-.161 2.17-.322.83-.348 1.407-.924 1.728-1.727z" transform="translate(-36 -1)"/>
</svg>
