<?xml version="1.0" encoding="UTF-8"?>
<svg width="37px" height="36px" viewBox="0 0 37 36" version="1.1" xmlns="http://www.w3.org/2000/svg" xmlns:xlink="http://www.w3.org/1999/xlink">
    <!-- Generator: sketchtool 52.4 (67378) - http://www.bohemiancoding.com/sketch -->
    <title>8E1966A2-684B-4EEA-B32B-678C1E12887A</title>
    <desc>Created with sketchtool.</desc>
    <g id="Page-1" stroke="none" stroke-width="1" fill="none" fill-rule="evenodd">
        <g id="Full-HD-" transform="translate(-1037.000000, -48.000000)" fill="#FFFFFF">
            <g id="Group-3" transform="translate(846.000000, 48.000000)">
                <g id="instagram" transform="translate(191.978684, 0.000000)">
                    <path d="M25.2311739,0 L10.7058261,0 C4.8026087,0 0,4.8026087 0,10.7058261 L0,25.2311739 C0,31.1343913 4.8026087,35.937 10.7058261,35.937 L25.2311739,35.937 C31.1343913,35.937 35.937,31.1343913 35.937,25.2311739 L35.937,10.7058261 C35.9369348,4.8026087 31.1343261,0 25.2311739,0 Z M32.3217391,25.2311739 C32.3217391,29.1471522 29.1471522,32.3217391 25.2311739,32.3217391 L10.7058261,32.3217391 C6.78984783,32.3217391 3.61526087,29.1471522 3.61526087,25.2311739 L3.61526087,10.7058261 C3.61526087,6.78978261 6.78984783,3.61526087 10.7058261,3.61526087 L25.2311739,3.61526087 C29.1471522,3.61526087 32.3217391,6.78978261 32.3217391,10.7058261 L32.3217391,25.2311739 Z" id="Shape" fill-rule="nonzero"></path>
                    <path d="M17.9685,8.67391304 C12.8434565,8.67391304 8.67391304,12.8434565 8.67391304,17.9684348 C8.67391304,23.093413 12.8434565,27.2630217 17.9685,27.2630217 C23.0935435,27.2630217 27.263087,23.0934783 27.263087,17.9684348 C27.263087,12.8433913 23.0935435,8.67391304 17.9685,8.67391304 Z M17.9685,23.6478261 C14.8318696,23.6478261 12.2891739,21.1051304 12.2891739,17.9685 C12.2891739,14.8318696 14.8319348,12.2891739 17.9685,12.2891739 C21.1051304,12.2891739 23.6478261,14.8318696 23.6478261,17.9685 C23.6478261,21.1050652 21.1050652,23.6478261 17.9685,23.6478261 Z" id="Shape" fill-rule="nonzero"></path>
                    <circle id="Oval" cx="27.281087" cy="8.74369565" r="2.22717391"></circle>
                </g>
            </g>
        </g>
    </g>
</svg>