<svg xmlns="http://www.w3.org/2000/svg" width="18" height="18" viewBox="0 0 18 18">
    <path fill="#0074B7" fill-rule="evenodd" d="M4.018 18H.28V5.987h3.737V18zM2.17 4.34c-.59 0-1.099-.215-1.527-.644A2.086 2.086 0 0 1 0 2.17C0 1.58.214 1.07.643.643A2.086 2.086 0 0 1 2.17 0c.589 0 1.098.214 1.526.643.429.428.643.937.643 1.527 0 .589-.214 1.098-.643 1.526a2.086 2.086 0 0 1-1.526.643zM18 18h-3.737v-5.866c0-.964-.08-1.66-.24-2.09-.295-.723-.871-1.084-1.728-1.084-.858 0-1.46.321-1.808.964-.268.482-.402 1.192-.402 2.13V18H6.388V5.987h3.576v1.647h.04c.268-.536.697-.978 1.286-1.326.643-.429 1.393-.643 2.25-.643 1.741 0 2.96.55 3.656 1.647.536.884.804 2.25.804 4.099V18z"/>
</svg>
