<svg xmlns="http://www.w3.org/2000/svg" width="169" height="38" viewBox="0 0 169 38">
    <g fill="none" fill-rule="evenodd">
        <path fill="#2C2521" d="M21.704 38H3.217C1.45 38 0 36.583 0 34.857V3.143C0 1.417 1.45 0 3.217 0c1.767 0 3.218 1.417 3.218 3.143v28.57H21.73c1.82 0 3.27 1.418 3.27 3.144C24.974 36.583 23.523 38 21.704 38M109.676 37.407a3.222 3.222 0 0 1-1.85.593c-.99 0-1.902-.438-2.58-1.288l-7.164-9.713a18.674 18.674 0 0 1-3.673.876v6.982c0 1.726-1.485 3.143-3.23 3.143C89.432 38 88 36.583 88 34.857V3.143C88 1.417 89.433 0 91.178 0c1.746 0 3.23 1.417 3.23 3.143v18.394a9.495 9.495 0 0 0 2.945-1.082c.156-.05.286-.102.442-.206 2.84-1.674 4.82-4.817 6.227-9.79.443-1.674 2.188-2.653 3.882-2.163 1.693.489 2.684 2.215 2.24 3.89-.703 2.37-2.24 7.78-6.565 11.618l6.774 9.198c1.094 1.365.756 3.375-.677 4.405M117.542 19.778h13.89c-1.056-3.737-3.975-5.464-6.87-5.464-2.843-.025-5.912 1.727-7.02 5.464M124.84 38c-3.9 0-7.449-1.727-10.04-4.665-2.492-2.706-3.8-6.443-3.8-10.387C111 14.392 116.863 8 124.588 8 132.363 8 138 14.289 138 22.948c0 1.727-1.384 3.145-3.12 3.145h-17.287c1.057 3.299 3.8 5.618 7.247 5.618 2.692 0 4.856-.747 6.064-3.04.906-1.522 2.793-1.96 4.227-1.083 1.485.927 1.913 2.86 1.057 4.33C133.823 36.325 129.696 38 124.84 38M148.542 19.778h13.89c-1.056-3.737-3.95-5.464-6.87-5.464-2.843-.025-5.913 1.727-7.02 5.464M155.84 38c-3.9 0-7.449-1.727-10.04-4.665-2.492-2.706-3.8-6.443-3.8-10.387C142 14.392 147.863 8 155.588 8 163.363 8 169 14.289 169 22.948c0 1.727-1.384 3.145-3.12 3.145h-17.287c1.056 3.299 3.8 5.618 7.247 5.618 2.692 0 4.856-.747 6.064-3.04.906-1.522 2.793-1.96 4.227-1.083 1.485.927 1.913 2.86 1.057 4.33C164.823 36.325 160.696 38 155.84 38"/>
        <path fill="#DB3232" d="M37.961 14.327c-4.797 0-8.66 3.915-8.66 8.712 0 4.745 3.863 8.66 8.66 8.66 4.797 0 8.66-3.915 8.66-8.66 0-4.797-3.863-8.712-8.66-8.712m0 23.673C29.69 38 23 31.258 23 23.039 23 14.768 29.69 8 37.961 8S53 14.742 53 23.039C53 31.259 46.258 38 37.961 38M70.961 14.327c-4.797 0-8.66 3.915-8.66 8.712 0 4.745 3.863 8.66 8.66 8.66 4.797 0 8.66-3.915 8.66-8.66 0-4.797-3.863-8.712-8.66-8.712m0 23.673C62.69 38 56 31.258 56 23.039 56 14.768 62.69 8 70.961 8S86 14.742 86 23.039C86 31.259 79.232 38 70.961 38"/>
        <path fill="#DB3232" d="M38 18a5 5 0 1 1 0 10 5 5 0 0 1 0-10M71 18a5 5 0 1 1 0 10 5 5 0 0 1 0-10M49.949 17c.205-2.085 1.923-3.336 4.025-3.336 2.103 0 3.847 1.251 4.026 3.336h3c-.205-3.475-3.282-6-7.026-6-3.743 0-6.795 2.525-6.974 6h2.949zM32.879 7.597c3.808-1.84 7.616-2.384 7.068-3.499-.548-1.14-4.147-1.788-7.955.078-3.808 1.84-6.468 4.25-5.92 5.39.547 1.141 2.999-.129 6.807-1.969M77.134 6.975c-3.827-1.581-7.628-2.033-7.081-3.004.546-.972 4.14-1.582 7.94 0 3.827 1.58 6.482 3.659 5.936 4.653-.521.971-2.968-.068-6.795-1.65"/>
    </g>
</svg>
