<?xml version="1.0" encoding="UTF-8"?>
<svg width="23px" height="23px" viewBox="0 0 23 23" version="1.1" xmlns="http://www.w3.org/2000/svg" xmlns:xlink="http://www.w3.org/1999/xlink">
    <!-- Generator: sketchtool 52.4 (67378) - http://www.bohemiancoding.com/sketch -->
    <title>18257E08-A7D1-4CA6-9775-E27B16AC5485</title>
    <desc>Created with sketchtool.</desc>
    <g id="Page-1" stroke="none" stroke-width="1" fill="none" fill-rule="evenodd">
        <g id="Full-HD-" transform="translate(-799.000000, -8410.000000)" fill="#000000">
            <g id="toine-garnier-396670-unsplash" transform="translate(0.000000, 8174.000000)">
                <g id="Group-28" transform="translate(428.000000, 79.000000)">
                    <g id="Group-25-Copy" transform="translate(355.000000, 135.000000)">
                        <g id="phone-call" transform="translate(16.000000, 22.400000)">
                            <path d="M17.695811,13.8703257 C17.2374143,13.3930262 16.684503,13.1378363 16.0985114,13.1378363 C15.5172456,13.1378363 14.9596084,13.3883004 14.4823089,13.8656 L12.9889755,15.3542076 C12.8661063,15.2880473 12.7432371,15.2266127 12.6250937,15.1651781 C12.4549671,15.0801148 12.294292,14.9997772 12.1572456,14.9147139 C10.758427,14.0262751 9.48720338,12.8684692 8.26796287,11.3704101 C7.67724557,10.6237435 7.28028354,9.99522025 6.9920135,9.35724557 C7.37952405,9.00281519 7.73868017,8.63420759 8.08838481,8.27977722 C8.22070549,8.14745654 8.35302616,8.01041013 8.48534684,7.87808945 C9.4777519,6.88568439 9.4777519,5.60028354 8.48534684,4.60787848 L7.19522025,3.3177519 C7.04872236,3.17125401 6.89749873,3.02003038 6.75572658,2.86880675 C6.47218228,2.57581097 6.17446076,2.27336371 5.86728776,1.98981941 C5.40889114,1.53614852 4.86070549,1.29513586 4.2841654,1.29513586 C3.70762532,1.29513586 3.14998819,1.53614852 2.67741435,1.98981941 C2.67268861,1.99454515 2.67268861,1.99454515 2.66796287,1.99927089 L1.06121181,3.62019916 C0.4563173,4.22509367 0.111338397,4.96230886 0.0357265823,5.81766751 C-0.0776911392,7.19758312 0.328722363,8.48298397 0.640621097,9.3241654 C1.40619072,11.3893131 2.54981941,13.3032371 4.25581097,15.3542076 C6.32568439,17.8257688 8.81614852,19.7774987 11.661043,21.1526886 C12.7479629,21.6677941 14.1987646,22.2774143 15.8196928,22.3813806 C15.9189333,22.3861063 16.0228996,22.3908321 16.1174143,22.3908321 C17.2090599,22.3908321 18.1258532,21.9985958 18.8441654,21.2188489 C18.8488911,21.2093975 18.8583426,21.2046717 18.8630684,21.1952203 C19.1088068,20.8974987 19.3923511,20.6281316 19.6900726,20.3398616 C19.8932793,20.1461063 20.1012118,19.9428996 20.3044186,19.7302414 C20.7722667,19.2434903 21.0180051,18.6764017 21.0180051,18.0951359 C21.0180051,17.5091443 20.7675409,16.9467814 20.2902414,16.4742076 L17.695811,13.8703257 Z M19.3876253,18.8465283 C19.3828996,18.8465283 19.3828996,18.851254 19.3876253,18.8465283 C19.2033215,19.0450093 19.014292,19.2245873 18.8110852,19.4230684 C18.5039122,19.7160641 18.1920135,20.0232371 17.8990177,20.368216 C17.4217181,20.8785958 16.8593553,21.1196084 16.1221401,21.1196084 C16.051254,21.1196084 15.9756422,21.1196084 15.9047561,21.1148827 C14.5012118,21.0250937 13.196908,20.476908 12.2186802,20.0090599 C9.54391224,18.7142076 7.19522025,16.8758954 5.2434903,14.5461063 C3.6320135,12.6038278 2.55454515,10.8080473 1.84095865,8.87994599 C1.40146498,7.70323713 1.24078987,6.78644388 1.31167595,5.92163376 C1.35893333,5.36872236 1.57159156,4.91032574 1.96382785,4.51808945 L3.57530464,2.90661266 C3.80686582,2.68922869 4.05260422,2.57108523 4.29361688,2.57108523 C4.5913384,2.57108523 4.83235105,2.75066329 4.98357468,2.90188692 C4.98830042,2.90661266 4.99302616,2.9113384 4.9977519,2.91606414 C5.28602194,3.18543122 5.56011477,3.46424979 5.84838481,3.76197131 C5.9948827,3.91319494 6.14610633,4.06441857 6.29732996,4.22036793 L7.58745654,5.51049451 C8.08838481,6.01142278 8.08838481,6.47454515 7.58745654,6.97547342 C7.45041013,7.11251983 7.31808945,7.24956624 7.18104304,7.38188692 C6.78408101,7.78830042 6.40602194,8.16635949 5.9948827,8.53496709 C5.98543122,8.54441857 5.97597975,8.5491443 5.97125401,8.55859578 C5.56484051,8.96500928 5.64045232,9.36197131 5.72551561,9.6313384 C5.73024135,9.64551561 5.73496709,9.65969283 5.73969283,9.67387004 C6.07522025,10.486697 6.54779409,11.2522667 7.26610633,12.1643342 L7.27083207,12.1690599 C8.57513586,13.775811 9.95032574,15.0281316 11.4672878,15.9874565 C11.661043,16.1103257 11.8595241,16.2095662 12.0485536,16.304081 C12.2186802,16.3891443 12.3793553,16.4694819 12.5164017,16.5545451 C12.5353046,16.5639966 12.5542076,16.5781738 12.5731105,16.5876253 C12.7337857,16.6679629 12.8850093,16.7057688 13.0409586,16.7057688 C13.4331949,16.7057688 13.6789333,16.4600304 13.7592709,16.3796928 L15.3754734,14.7634903 C15.5361485,14.6028152 15.7913384,14.4090599 16.0890599,14.4090599 C16.3820557,14.4090599 16.6230684,14.5933637 16.7695662,14.7540388 C16.774292,14.7587646 16.774292,14.7587646 16.7790177,14.7634903 L19.3828996,17.3673722 C19.8696506,17.8493975 19.8696506,18.3456 19.3876253,18.8465283 Z" id="Shape" fill-rule="nonzero"></path>
                            <path d="M12.1005367,5.32619072 C13.3386802,5.53412321 14.4634059,6.12011477 15.3612962,7.01800506 C16.2591865,7.91589536 16.8404523,9.0406211 17.0531105,10.2787646 C17.1050937,10.5906633 17.3744608,10.8080473 17.6816338,10.8080473 C17.7194397,10.8080473 17.7525198,10.8033215 17.7903257,10.7985958 C18.1400304,10.7418869 18.3715916,10.4110852 18.3148827,10.0613806 C18.0596928,8.56332152 17.3508321,7.19758312 16.268638,6.11538903 C15.1864439,5.03319494 13.8207055,4.32433418 12.3226464,4.0691443 C11.9729418,4.01243544 11.6468658,4.24399662 11.5854312,4.58897553 C11.5239966,4.93395443 11.7508321,5.26948186 12.1005367,5.32619072 Z" id="Path"></path>
                            <path d="M22.3648405,9.87707679 C21.9442498,7.41024135 20.7817181,5.16551561 18.995389,3.3791865 C17.2090599,1.59285738 14.9643342,0.430325738 12.4974987,0.0097350211 C12.1525198,-0.0516995781 11.8264439,0.184587342 11.7650093,0.529566245 C11.7083004,0.879270886 11.9398616,1.20534684 12.2895662,1.26678143 C14.4917603,1.64011477 16.5001992,2.68450295 18.0974987,4.27707679 C19.6947983,5.87437637 20.7344608,7.88281519 21.1077941,10.0850093 C21.1597772,10.396908 21.4291443,10.614292 21.7363173,10.614292 C21.7741232,10.614292 21.8072034,10.6095662 21.8450093,10.6048405 C22.1899882,10.5528574 22.4262751,10.2220557 22.3648405,9.87707679 Z" id="Path"></path>
                        </g>
                    </g>
                </g>
            </g>
        </g>
    </g>
</svg>