<?xml version="1.0" encoding="UTF-8"?>
<svg width="18px" height="25px" viewBox="0 0 18 25" version="1.1" xmlns="http://www.w3.org/2000/svg" xmlns:xlink="http://www.w3.org/1999/xlink">
    <!-- Generator: sketchtool 52.4 (67378) - http://www.bohemiancoding.com/sketch -->
    <title>9E3F3AEE-16E0-48DB-B484-CFA6B28BFDDE</title>
    <desc>Created with sketchtool.</desc>
    <g id="Page-1" stroke="none" stroke-width="1" fill="none" fill-rule="evenodd">
        <g id="Full-HD-" transform="translate(-1593.000000, -43.000000)" fill="#F2EE18" fill-rule="nonzero">
            <g id="Group-18">
                <g id="Group-4" transform="translate(1326.000000, 18.000000)">
                    <g id="Group-6">
                        <g id="Phones-Copy" transform="translate(267.000000, 23.000000)">
                            <g id="placeholder" transform="translate(0.000000, 2.000000)">
                                <path d="M9,0 C4.0374,0 0,3.94277344 0,8.7890625 C0,10.4264648 0.46445,12.0244141 1.34345,13.4107422 L8.4877,24.6537598 C8.62455,24.8691406 8.86565,25 9.12495,25 C9.12695,25 9.1289,25 9.1309,25 C9.39245,24.997998 9.63405,24.8630859 9.7684,24.6439453 L16.73055,13.2919922 C17.56105,11.9349609 18,10.3778809 18,8.7890625 C18,3.94277344 13.9626,0 9,0 Z M15.4433,12.5399414 L9.1136,22.8606445 L2.61835,12.6389648 C1.8867,11.4850586 1.49,10.1538086 1.49,8.7890625 C1.49,4.75048828 4.8645,1.45507812 9,1.45507812 C13.1355,1.45507812 16.505,4.75048828 16.505,8.7890625 C16.505,10.1133301 16.13445,11.4105469 15.4433,12.5399414 Z" id="Shape"></path>
                                <path d="M8.5,4 C6.0187,4 4,6.0187 4,8.5 C4,10.96545 5.98585,13 8.5,13 C11.04515,13 13,10.93835 13,8.5 C13,6.0187 10.9813,4 8.5,4 Z M8.5,11.51 C6.83715,11.51 5.49,10.15835 5.49,8.5 C5.49,6.8458 6.8458,5.49 8.5,5.49 C10.1542,5.49 11.505,6.8458 11.505,8.5 C11.505,10.13415 10.1892,11.51 8.5,11.51 Z" id="Shape"></path>
                            </g>
                        </g>
                    </g>
                </g>
            </g>
        </g>
    </g>
</svg>