<?xml version="1.0" encoding="UTF-8"?>
<svg width="100px" height="100px" viewBox="0 0 100 100" version="1.1" xmlns="http://www.w3.org/2000/svg" xmlns:xlink="http://www.w3.org/1999/xlink">
    <!-- Generator: sketchtool 52.4 (67378) - http://www.bohemiancoding.com/sketch -->
    <title>163F22B4-9056-4178-96E1-9B6EE46FCA59</title>
    <desc>Created with sketchtool.</desc>
    <g id="Page-1" stroke="none" stroke-width="1" fill="none" fill-rule="evenodd">
        <g id="Full-HD-" transform="translate(-246.000000, -3482.000000)">
            <g id="Group-16" transform="translate(102.000000, 2920.000000)">
                <g id="Group-13-Copy-10" transform="translate(0.000000, 562.000000)">
                    <g id="Group-12" transform="translate(144.000000, 0.000000)">
                        <circle id="Oval" fill="#F2EE18" cx="49.5" cy="65.5" r="23.5"></circle>
                        <g id="cruise" fill="#000000">
                            <path d="M78.3335283,57.5664717 C78.3335283,57.5664717 65.7411306,49.7964912 65.7253411,49.7867446 C64.8191033,49.2274854 63.5986355,49.5224172 63.0411306,50.4220273 C62.4824561,51.3235867 62.7789474,52.5508772 63.6766082,53.1042885 C63.6766082,53.1042885 76.2769981,60.8793372 76.2847953,60.8840156 C77.1906433,61.442885 78.4101365,61.1553606 78.9670565,60.2487329 C79.5239766,59.3419103 79.2401559,58.1253411 78.3335283,57.5664717 Z" id="Path"></path>
                            <path d="M58.0668616,45.4025341 C56.8218324,45.4023392 55.8830409,46.5875244 56.1676413,47.7992203 C56.2808967,48.2818713 56.6126706,48.7202729 57.0497076,48.997076 C57.3497076,49.1871345 57.6994152,49.3011696 58.0625731,49.3011696 C58.7446394,49.3011696 59.3664717,48.9563353 59.7231969,48.3756335 C60.4830409,47.1385965 59.5278752,45.402729 58.0668616,45.4025341 Z" id="Path"></path>
                            <path d="M37.8816764,50.3212476 C37.3317739,49.4454191 36.0639376,49.1623782 35.1931774,49.7124756 C35.1931774,49.7124756 22.6820663,57.6017544 22.6610136,57.6150097 C21.7594542,58.1834308 21.4844055,59.4013645 22.0522417,60.3021442 C22.3935673,60.8438596 23.0522417,61.1614035 23.7042885,61.1797271 C24.0711501,61.1900585 24.4358674,61.105653 24.7409357,60.9132554 C24.7409357,60.9132554 37.2643275,53.014425 37.2730994,53.0087719 C38.1744639,52.4403509 38.4481481,51.2233918 37.8816764,50.3212476 Z" id="Path"></path>
                            <path d="M42.8247563,45.2524366 C41.9194932,45.2524366 41.1263158,45.888694 40.9261209,46.7705653 C40.6534113,47.9719298 41.6044834,49.1510721 42.828655,49.1510721 C43.7321637,49.1510721 44.5298246,48.5150097 44.7292398,47.6323587 C45.0023392,46.4237817 44.060039,45.2524366 42.8247563,45.2524366 Z" id="Path"></path>
                            <path d="M99.3270955,88.7844055 C98.6206628,87.9719298 97.3894737,87.8861598 96.5769981,88.5925926 C94.4984405,90.3998051 92.5748538,92.2734893 89.8475634,93.0272904 C86.8157895,93.8651072 83.9345029,93.2038986 81.1906433,91.8319688 L91.3424951,57.6752437 C91.5951267,56.8255361 91.2423002,55.9122807 90.4842105,55.4528265 L81.0918129,49.7617934 L81.0918129,33.1432749 C81.0918129,32.0668616 80.2191033,31.1939571 79.1424951,31.1939571 L75.2438596,31.1939571 L75.2438596,25.3460039 C75.2438596,24.2695906 74.3711501,23.3966862 73.2945419,23.3966862 L67.154191,23.3966862 L67.154191,17.5487329 C67.154191,16.4723197 66.2814815,15.5994152 65.2048733,15.5994152 L55.7506823,15.5994152 L55.7506823,1.95419103 C55.7506823,0.877777778 54.8779727,0.00487329435 53.8013645,0.00487329435 L46.0040936,0.00487329435 C44.9274854,0.00487329435 44.0547758,0.877777778 44.0547758,1.95419103 L44.0547758,15.5994152 L34.6005848,15.5994152 C33.5239766,15.5994152 32.6512671,16.4723197 32.6512671,17.5487329 L32.6512671,23.3966862 L26.5109162,23.3966862 C25.434308,23.3966862 24.5615984,24.2695906 24.5615984,25.3460039 L24.5615984,31.1939571 L20.662963,31.1939571 C19.5863548,31.1939571 18.7136452,32.0668616 18.7136452,33.1432749 L18.7136452,49.7617934 L9.3214425,55.4526316 C8.56315789,55.9120858 8.21052632,56.8253411 8.46315789,57.6750487 C8.46315789,57.6750487 18.5900585,91.7471735 18.594347,91.7619883 C18.4214425,91.1803119 15.3021442,90.797271 14.7506823,90.7259259 C9.0748538,89.991423 4.7588694,92.8346979 0.67037037,96.3896686 C-0.142105263,97.0961014 -0.227875244,98.3270955 0.478362573,99.1395712 C1.15263158,99.9150097 2.40740741,100.045224 3.22826511,99.3315789 C7.44035088,95.6699805 12.1890838,92.8787524 17.7621832,95.665692 C22.8038986,98.1863548 28.0226121,99.2672515 33.2738791,96.5038986 C37.5081871,94.2750487 41.594347,92.3504873 46.3206628,94.6007797 L51.1797271,96.9146199 C55.3368421,98.894347 60.0830409,98.8487329 64.2009747,96.7894737 C66.7385965,95.5206628 69.3177388,93.8321637 72.2163743,93.6329435 C75.0576998,93.4378168 77.8031189,94.4957115 80.2996101,95.7450292 C83.5976608,97.394152 87.4586745,97.7235867 91.0001949,96.7140351 C94.2623782,95.7840156 96.6364522,93.7064327 99.1348928,91.5341131 C99.9475634,90.8278752 100.033333,89.5968811 99.3270955,88.7844055 Z M77.1931774,35.0925926 L77.1931774,47.3996101 L56.8816764,35.0925926 L77.1931774,35.0925926 Z M47.9534113,3.90350877 L51.8520468,3.90350877 L51.8520468,15.5994152 L47.9534113,15.5994152 L47.9534113,3.90350877 Z M36.5499025,19.4980507 L63.2555556,19.4980507 L63.2555556,23.3966862 L36.5499025,23.3966862 L36.5499025,19.4980507 Z M22.6122807,35.0925926 L42.9237817,35.0925926 L22.6122807,47.3996101 L22.6122807,35.0925926 Z M47.9534113,91.0604288 C47.9538012,90.7140351 45.1746589,90.0750487 44.8111111,89.9962963 C41.4185185,89.2619883 37.7764133,89.7282651 34.7007797,91.3471735 C32.4692008,92.5216374 30.3161793,93.8918129 27.7639376,94.2204678 C27.7592593,94.2210526 27.7545809,94.2216374 27.7499025,94.2222222 C26.2586745,94.4035088 24.7323587,94.2937622 23.2890838,93.8729045 L12.6288499,58.0072125 L47.9534113,36.6037037 C47.9534113,36.6037037 47.9534113,91.0582846 47.9534113,91.0604288 Z M28.4602339,31.1939571 L28.4602339,27.2953216 L71.3452242,27.2953216 L71.3452242,31.1939571 L28.4602339,31.1939571 Z M77.5873294,90.2697856 C77.6089669,89.6666667 72.1216374,89.6721248 71.7539961,89.7109162 C68.3703704,90.0688109 65.4432749,91.8097466 62.4573099,93.302729 C58.9298246,95.0664717 55.3001949,94.5594542 51.8520468,92.9167641 L51.8520468,36.6037037 L87.1766082,58.0072125 L77.5873294,90.2697856 Z" id="Shape" fill-rule="nonzero"></path>
                        </g>
                    </g>
                </g>
            </g>
        </g>
    </g>
</svg>