<?xml version="1.0" encoding="UTF-8"?>
<svg width="36px" height="36px" viewBox="0 0 36 36" version="1.1" xmlns="http://www.w3.org/2000/svg" xmlns:xlink="http://www.w3.org/1999/xlink">
    <!-- Generator: sketchtool 52.4 (67378) - http://www.bohemiancoding.com/sketch -->
    <title>13F4FEC6-4640-4C69-90A7-2AA3E2AFE74B</title>
    <desc>Created with sketchtool.</desc>
    <g id="Page-1" stroke="none" stroke-width="1" fill="none" fill-rule="evenodd">
        <g id="Full-HD-" transform="translate(-846.000000, -48.000000)">
            <g id="Group-3" transform="translate(846.000000, 48.000000)">
                <g id="telegram">
                    <rect id="Rectangle" fill="#61A8DE" x="0" y="0" width="35.9787632" height="35.9787632"></rect>
                    <path d="M28.3297895,7.94210526 L4.27034211,17.3178158 C3.49105263,17.6215263 3.53826316,18.7398158 4.34044737,18.9766579 L10.4542105,20.7820263 L12.7358684,28.0219737 C12.9742105,28.7782105 13.9325526,29.0074737 14.4873158,28.4410263 L17.6482895,25.2135 L23.8503947,29.766 C24.6093947,30.3231316 25.6903421,29.9092105 25.8830526,28.9876579 L29.9907632,9.34871053 C30.1919211,8.38673684 29.2455,7.58526316 28.3297895,7.94210526 Z M25.3133684,12.3004737 L14.1378947,22.1829474 C14.0265,22.2814737 13.9556053,22.4178158 13.9390263,22.5656053 L13.5087632,26.3904474 C13.4947105,26.5151842 13.3201579,26.5316842 13.2828947,26.4118421 L11.5126579,20.7076579 C11.4315789,20.4465 11.5372895,20.1635526 11.7696316,20.0194737 L24.9667105,11.8345263 C25.2701842,11.6461579 25.5809211,12.0639474 25.3133684,12.3004737 Z" id="Shape" fill="#FFFFFF" fill-rule="nonzero"></path>
                </g>
            </g>
        </g>
    </g>
</svg>