<?xml version="1.0" encoding="UTF-8"?>
<svg width="100px" height="113px" viewBox="0 0 100 113" version="1.1" xmlns="http://www.w3.org/2000/svg" xmlns:xlink="http://www.w3.org/1999/xlink">
    <!-- Generator: sketchtool 52.4 (67378) - http://www.bohemiancoding.com/sketch -->
    <title>B97D712A-9D89-460D-84E9-57CE6DE52549</title>
    <desc>Created with sketchtool.</desc>
    <g id="Page-1" stroke="none" stroke-width="1" fill="none" fill-rule="evenodd">
        <g id="Full-HD-" transform="translate(-1140.000000, -3088.000000)">
            <g id="Group-16" transform="translate(102.000000, 2920.000000)">
                <g id="Group-10" transform="translate(887.000000, 168.000000)">
                    <g id="Group-12" transform="translate(151.000000, 0.000000)">
                        <circle id="Oval" fill="#F2EE18" cx="49.6" cy="27.6" r="27.6"></circle>
                        <g id="handshake" transform="translate(0.000000, 13.000000)" fill="#000000">
                            <path d="M98.0427734,48.1078125 C99.1214844,48.1078125 99.9957031,47.2332031 99.9957031,46.1548828 L99.9957031,33.6767578 C99.9958984,32.5984375 99.1216797,31.7240234 98.0433594,31.7238281 L65.6005859,31.7160156 C65.5992188,31.7160156 65.5980469,31.7160156 65.5964844,31.7160156 C61.6605469,31.7160156 57.8166016,33.321875 55.0505859,36.121875 L51.9984375,39.2111328 L47.3191406,34.5308594 C45.50625,32.7179687 43.0957031,31.7191406 40.5316406,31.7189453 L1.95742187,31.7160156 C1.43945312,31.7160156 0.942773437,31.921875 0.5765625,32.2880859 C0.21015625,32.6542969 0.0044921875,33.1511719 0.0044921875,33.6689453 L0.0044921875,72.378125 C0.0044921875,73.4566406 0.87890625,74.3310547 1.95742187,74.3310547 L19.3765625,74.3310547 C19.6810547,75.4251953 20.2609375,76.4578125 21.1193359,77.3167969 C22.4503906,78.6480469 24.1990234,79.3140625 25.9478516,79.3140625 C25.9701172,79.3140625 25.9921875,79.3126953 26.0142578,79.3125 C26.0140625,79.3361328 26.0125,79.3595703 26.0125,79.3833984 C26.0123047,81.2068359 26.7220703,82.9214844 28.0113281,84.2111328 C29.3005859,85.5007813 31.0150391,86.2113281 32.8386719,86.2117188 C32.8390625,86.2117188 32.8392578,86.2117188 32.8396484,86.2117188 C32.8619141,86.2117188 32.8839844,86.2103516 32.90625,86.2101563 C32.9060547,86.2328125 32.9046875,86.2550781 32.9046875,86.2777344 C32.9042969,88.1013672 33.6142578,89.8158203 34.9035156,91.1056641 C36.1927734,92.3955078 37.9070313,93.1058594 39.7306641,93.1060547 C39.7310547,93.1060547 39.7314453,93.1060547 39.7318359,93.1060547 C39.7541016,93.1060547 39.7761719,93.1046875 39.7984375,93.1044922 C39.7982422,93.1271484 39.796875,93.1496094 39.796875,93.1722656 C39.7966797,94.9958984 40.5064453,96.7103516 41.7957031,98 C43.0849609,99.2896484 44.7992188,100.000195 46.6228516,100.000586 C46.6234375,100.000586 46.6236328,100.000586 46.6242188,100.000586 C48.1501953,100.000586 49.5990234,99.5013672 50.7871094,98.5833984 C52.0066406,99.5183594 53.4710938,99.9875 54.9363281,99.9875 C56.6841797,99.9875 58.4320313,99.3224609 59.7630859,97.9919922 C61.1113281,96.6441406 61.7757813,94.8677734 61.7587891,93.0970703 C61.7824219,93.0972656 61.8058594,93.0988281 61.8296875,93.0988281 C61.8300781,93.0988281 61.8304688,93.0988281 61.8310547,93.0988281 C63.6541016,93.0988281 65.3681641,92.3890625 66.6576172,91.1001953 C68.0058594,89.7523438 68.6703125,87.9759766 68.653125,86.2050781 C68.6767578,86.2052734 68.7003906,86.2068359 68.7240234,86.2068359 C68.7244141,86.2068359 68.7246094,86.2068359 68.725,86.2068359 C70.5480469,86.2068359 72.2623047,85.4966797 73.5517578,84.2080078 C74.9,82.8601563 75.5644531,81.0839844 75.5472656,79.3130859 C75.5708984,79.3132813 75.5945313,79.3148438 75.6181641,79.3148438 C75.6185547,79.3148438 75.61875,79.3148438 75.6191406,79.3148438 C77.4421875,79.3148438 79.1564453,78.6046875 80.4458984,77.3160156 C81.2886719,76.4734375 81.8820313,75.4488281 82.19375,74.3314453 L98.0425781,74.3314453 C99.1212891,74.3314453 99.9955078,73.4568359 99.9955078,72.3785156 L99.9955078,61.1277344 C99.9955078,60.0494141 99.1210938,59.1748047 98.0425781,59.1748047 C96.9640625,59.1748047 96.0896484,60.0494141 96.0896484,61.1277344 L96.0896484,70.425 L89.4496094,70.425 L89.4496094,36.1296875 C89.4496094,35.9558594 89.4246094,35.7880859 89.3820313,35.6275391 L96.0896484,35.6291016 L96.0896484,46.1546875 C96.0898438,47.2332031 96.9640625,48.1078125 98.0427734,48.1078125 Z M25.9480469,75.4109375 C25.9478516,75.4109375 25.9476563,75.4109375 25.9474609,75.4109375 C25.1669922,75.4107422 24.4337891,75.1066406 23.8818359,74.5546875 C23.3300781,74.0029297 23.0263672,73.2693359 23.0265625,72.4890625 C23.0267578,71.7087891 23.3306641,70.9753906 23.8826172,70.4236328 L28.0193359,66.2884766 C28.5888672,65.7191406 29.3365234,65.4345703 30.0845703,65.4345703 C30.8328125,65.4345703 31.5810547,65.7195312 32.1505859,66.2890625 C33.2892578,67.4283203 33.2888672,69.2816406 32.1498047,70.4203125 L28.0132813,74.5556641 C27.4615234,75.1072266 26.7279297,75.4109375 25.9480469,75.4109375 Z M32.8398438,82.3052734 C32.8396484,82.3052734 32.8396484,82.3052734 32.8394531,82.3052734 C32.0589844,82.3050781 31.3257813,82.0009766 30.7740234,81.4490234 C30.2222656,80.8972656 29.9185547,80.1638672 29.91875,79.3833984 C29.9189453,78.603125 30.2230469,77.8697266 30.7748047,77.3179687 L34.9113281,73.1826172 C35.4630859,72.6310547 36.1964844,72.3273437 36.9765625,72.3273437 C36.9765625,72.3273437 36.9769531,72.3273437 36.9771484,72.3273437 C37.7576172,72.3275391 38.4908203,72.6316406 39.0427734,73.1833984 L39.0427734,73.1835937 C40.1816406,74.3228516 40.18125,76.1759766 39.0421875,77.3146484 L34.9054688,81.4498047 C34.3535156,82.0015625 33.6199219,82.3052734 32.8398438,82.3052734 Z M37.6658203,88.34375 C36.5269531,87.2044922 36.5271484,85.3509766 37.6666016,84.2123047 L41.8033203,80.0771484 C42.3550781,79.5255859 43.0884766,79.221875 43.8685547,79.221875 C43.86875,79.221875 43.8689453,79.221875 43.8691406,79.221875 C44.6494141,79.221875 45.3828125,79.5259766 45.9345703,80.0777344 C47.0732422,81.2169922 47.0730469,83.0705078 45.9339844,84.2091797 L41.7972656,88.3443359 C40.6582031,89.4832031 38.8048828,89.4828125 37.6658203,88.34375 Z M49.4078125,94.5205078 C49.4074219,94.5208984 49.4068359,94.5212891 49.4064453,94.5216797 C49.4060547,94.5220703 49.4056641,94.5226563 49.4050781,94.5230469 L48.6890625,95.2388672 C48.1373047,95.7904297 47.4041016,96.0941406 46.6240234,96.0941406 C46.6238281,96.0941406 46.6236328,96.0941406 46.6234375,96.0941406 C45.8429687,96.0939453 45.1097656,95.7898438 44.5578125,95.2378906 C44.0060547,94.6861328 43.7023438,93.9525391 43.7025391,93.1722656 C43.7027344,92.3919922 44.0066406,91.6585938 44.5585938,91.1068359 L48.6953125,86.9716797 C49.2470703,86.4201172 49.9804688,86.1162109 50.7607422,86.1162109 C50.7609375,86.1162109 50.7609375,86.1162109 50.7609375,86.1162109 C51.5416016,86.1164062 52.2748047,86.4205078 52.8265625,86.9722656 L52.8265625,86.9724609 C53.3783203,87.5242187 53.6820313,88.2576172 53.6818359,89.0380859 C53.6816406,89.8183594 53.3775391,90.5517578 52.8257813,91.1035156 L49.4078125,94.5205078 Z M57.0017578,95.2291016 C56.0996094,96.1308594 54.7509766,96.3154297 53.6630859,95.7894531 L55.5871094,93.8660156 C56.3195313,93.1337891 56.8644531,92.2644531 57.1992188,91.3160156 C58.1365234,92.4625 58.0707031,94.1605469 57.0017578,95.2291016 Z M77.6847656,74.553125 C77.1332031,75.1044922 76.3998047,75.4083984 75.6195313,75.4083984 C75.6193359,75.4083984 75.6191406,75.4083984 75.6191406,75.4083984 C74.8386719,75.4082031 74.1052734,75.1041016 73.5533203,74.5521484 L61.2041016,62.2013672 C60.4414063,61.4384766 59.2050781,61.4386719 58.4421875,62.2011719 C58.0607422,62.5824219 57.8701172,63.0822266 57.8701172,63.5820312 C57.8701172,64.0818359 58.0607422,64.5816406 58.4421875,64.9628906 L70.7912109,77.3134766 C71.9300781,78.4527344 71.9296875,80.3060547 70.790625,81.4447266 C70.2388672,81.9962891 69.5054688,82.3001953 68.7251953,82.3001953 C68.725,82.3001953 68.7248047,82.3001953 68.7248047,82.3001953 C67.9443359,82.3 67.2111328,81.9958984 66.6591797,81.4439453 L54.3097656,69.0931641 C53.5470703,68.3304687 52.3107422,68.3306641 51.5478516,69.0929687 C50.7851562,69.8556641 50.7849609,71.0919922 51.5478516,71.8548828 L63.8970703,84.2054688 C65.0359375,85.3447266 65.0357422,87.1982422 63.8964844,88.3369141 C63.3447266,88.8884766 62.6115234,89.1921875 61.83125,89.1921875 C61.8310547,89.1921875 61.8308594,89.1921875 61.8308594,89.1921875 C61.0503906,89.1919922 60.3169922,88.8878906 59.7652344,88.3361328 L55.8394531,84.4089844 C55.7462891,84.315625 55.6457031,84.2341797 55.5400391,84.1636719 C54.2566406,82.9044922 52.5630859,82.2107422 50.7623047,82.2103516 C50.7619141,82.2103516 50.7617187,82.2103516 50.7613281,82.2103516 C50.7378906,82.2103516 50.7148437,82.2117188 50.6916016,82.2121094 C50.709375,80.4414063 50.0455078,78.6650391 48.6976562,77.3166016 L48.6976562,77.3164063 C47.4083984,76.0267578 45.6939453,75.3164063 43.8705078,75.3162109 C43.8701172,75.3162109 43.8697266,75.3162109 43.8693359,75.3162109 C43.8460937,75.3162109 43.8230469,75.3177734 43.7998047,75.3179688 C43.8175781,73.5472656 43.1537109,71.7708984 41.8058594,70.4224609 C40.5166016,69.1328125 38.8023437,68.4222656 36.9787109,68.421875 C36.978125,68.421875 36.9779297,68.421875 36.9773437,68.421875 C36.9541016,68.421875 36.9310547,68.4234375 36.9078125,68.4236328 C36.9255859,66.6529297 36.2617187,64.8765625 34.9138672,63.528125 L34.9138672,63.5279297 C32.2523437,60.8658203 27.9210937,60.8646484 25.2587891,63.5263672 L21.1220703,67.6615234 C20.3214844,68.4619141 19.7634766,69.4136719 19.4441406,70.4251953 L14.4564453,70.4251953 L14.4564453,48.5310547 C14.4564453,47.4525391 13.5820312,46.578125 12.5035156,46.578125 C11.425,46.578125 10.5505859,47.4527344 10.5505859,48.5310547 L10.5505859,70.4248047 L3.91035156,70.4248047 L3.91035156,35.6216797 L40.5314453,35.6244141 C42.0521484,35.6246094 43.4820313,36.2169922 44.5572266,37.2921875 L49.2533203,41.9892578 L45.3212891,45.9691406 C42.5826172,48.7410156 42.6089844,53.2251953 45.3798828,55.9650391 C46.7404297,57.3101563 48.5373047,58.0080078 50.3519531,58.0080078 C51.5988281,58.0080078 52.8542969,57.6783203 53.9822266,57.0029297 L60.415625,53.1503906 L77.6853516,70.4216797 C78.1587891,70.8951172 78.4480469,71.5029297 78.5208984,72.1587891 C78.5128906,72.2306641 78.5078125,72.3037109 78.5078125,72.3777344 C78.5078125,72.4767578 78.5175781,72.5732422 78.5318359,72.6683594 C78.4882813,73.3806641 78.19375,74.0443359 77.6847656,74.553125 Z M85.5439453,36.1296875 L85.5439453,70.4248047 L82.1296875,70.4248047 C81.8041016,69.3929688 81.234375,68.4472656 80.4476562,67.6601563 L63.8705078,51.0816406 L66.3941406,49.5705078 L78.9941406,49.5705078 C80.0728516,49.5705078 80.9470703,48.6958984 80.9470703,47.6175781 C80.9470703,46.5390625 80.0726563,45.6646484 78.9941406,45.6646484 L65.8541016,45.6646484 C65.5005859,45.6646484 65.1539063,45.7605469 64.8505859,45.9421875 L51.9753906,53.6523438 C50.7361328,54.3947266 49.1529297,54.2033203 48.1259766,53.1876953 C46.8861328,51.9619141 46.8742188,49.9550781 48.0998047,48.7148438 L57.8292969,38.8669922 C59.8667969,36.8044922 62.6976562,35.621875 65.5966797,35.621875 C65.5974609,35.621875 65.5988281,35.621875 65.5996094,35.621875 L85.6117187,35.6267578 C85.5689453,35.7875 85.5439453,35.9554688 85.5439453,36.1296875 Z" id="Shape" fill-rule="nonzero"></path>
                            <path d="M99.4236328,51.6419922 C99.0603516,51.2787109 98.5564453,51.0697266 98.0429688,51.0697266 C97.5292969,51.0697266 97.0253906,51.2785156 96.6623047,51.6419922 C96.2990234,52.0052734 96.0900391,52.5091797 96.0900391,53.0226562 C96.0900391,53.5382812 96.2990234,54.0402344 96.6623047,54.403125 C97.0255859,54.7683594 97.5294922,54.9755859 98.0429688,54.9755859 C98.5566406,54.9755859 99.0605469,54.7683594 99.4236328,54.403125 C99.7869141,54.0400391 99.9958984,53.5378906 99.9958984,53.0226562 C99.9958984,52.5091797 99.7869141,52.0052734 99.4236328,51.6419922 Z" id="Path"></path>
                            <path d="M13.8841797,39.8265625 C13.5208984,39.4632812 13.0169922,39.2542969 12.5035156,39.2542969 C11.9898437,39.2542969 11.4859375,39.4630859 11.1228516,39.8265625 C10.7595703,40.1898437 10.5505859,40.69375 10.5505859,41.2072266 C10.5505859,41.7207031 10.7595703,42.2248047 11.1228516,42.5876953 C11.4861328,42.9509766 11.9900391,43.1601562 12.5035156,43.1601562 C13.0171875,43.1601562 13.5210937,42.9511719 13.8841797,42.5876953 C14.2474609,42.2246094 14.4564453,41.7207031 14.4564453,41.2072266 C14.4564453,40.69375 14.2474609,40.1898437 13.8841797,39.8265625 Z" id="Path"></path>
                            <path d="M64.0615234,0 L35.9388672,0 C32.7082031,0 30.0800781,2.62832031 30.0800781,5.85878906 L30.0800781,20.3107422 C30.0800781,23.5414062 32.7083984,26.1695312 35.9388672,26.1695312 L42.7464844,26.1695312 L48.6191406,32.0421875 C49.0005859,32.4234375 49.5003906,32.6142578 50,32.6142578 C50.4996094,32.6142578 50.9998047,32.4234375 51.3808594,32.0421875 L57.2535156,26.1695312 L64.0611328,26.1695312 C67.2917969,26.1695312 69.9199219,23.5412109 69.9199219,20.3107422 L69.9199219,5.85878906 C69.9203125,2.62832031 67.2919922,0 64.0615234,0 Z M66.0144531,20.3107422 C66.0144531,21.3875 65.1382813,22.2636719 64.0615234,22.2636719 L56.4449219,22.2636719 C55.9269531,22.2636719 55.4300781,22.4695312 55.0640625,22.8357422 L50.0001953,27.8996094 L44.9363281,22.8357422 C44.5701172,22.4695312 44.0732422,22.2636719 43.5554687,22.2636719 L35.9388672,22.2636719 C34.8619141,22.2636719 33.9859375,21.3875 33.9859375,20.3107422 L33.9859375,5.85878906 C33.9859375,4.78183594 34.8621094,3.90585937 35.9388672,3.90585937 L64.0615234,3.90585937 C65.1382812,3.90585937 66.0144531,4.78203125 66.0144531,5.85878906 L66.0144531,20.3107422 Z" id="Shape" fill-rule="nonzero"></path>
                            <path d="M42.2019531,11.6884766 C41.8386719,11.3232422 41.3347656,11.1162109 40.8212891,11.1162109 C40.3056641,11.1162109 39.8037109,11.3232422 39.440625,11.6884766 C39.0773437,12.0517578 38.8683594,12.5539063 38.8683594,13.0691406 C38.8683594,13.5828125 39.0773437,14.0867187 39.440625,14.4498047 C39.8039063,14.8130859 40.3078125,15.0220703 40.8212891,15.0220703 C41.3347656,15.0220703 41.8388672,14.8130859 42.2019531,14.4498047 C42.5652344,14.0865234 42.7742187,13.5826172 42.7742187,13.0691406 C42.7742187,12.5535156 42.5652344,12.0517578 42.2019531,11.6884766 Z" id="Path"></path>
                            <path d="M51.3808594,11.6884766 C51.0175781,11.3232422 50.5136719,11.1162109 50.0001953,11.1162109 C49.4867187,11.1162109 48.9826172,11.3232422 48.6195312,11.6884766 C48.25625,12.0517578 48.0472656,12.5539063 48.0472656,13.0691406 C48.0472656,13.5828125 48.25625,14.0867187 48.6195312,14.4498047 C48.9828125,14.8130859 49.4867187,15.0220703 50.0001953,15.0220703 C50.5136719,15.0220703 51.0177734,14.8130859 51.3808594,14.4498047 C51.7441406,14.0865234 51.953125,13.5826172 51.953125,13.0691406 C51.953125,12.5535156 51.7441406,12.0517578 51.3808594,11.6884766 Z" id="Path"></path>
                            <path d="M60.5597656,11.6884766 C60.1964844,11.3232422 59.6925781,11.1162109 59.1791016,11.1162109 C58.6654297,11.1162109 58.1615234,11.3232422 57.7984375,11.6884766 C57.4351562,12.0517578 57.2261719,12.5539063 57.2261719,13.0691406 C57.2261719,13.5828125 57.4351562,14.0867187 57.7984375,14.4498047 C58.1617187,14.8128906 58.665625,15.0220703 59.1791016,15.0220703 C59.6927734,15.0220703 60.1966797,14.8130859 60.5597656,14.4498047 C60.9230469,14.0865234 61.1320312,13.5826172 61.1320312,13.0691406 C61.1320312,12.5535156 60.9230469,12.0517578 60.5597656,11.6884766 Z" id="Path"></path>
                        </g>
                    </g>
                </g>
            </g>
        </g>
    </g>
</svg>