<?xml version="1.0" encoding="UTF-8"?>
<svg width="37px" height="36px" viewBox="0 0 37 36" version="1.1" xmlns="http://www.w3.org/2000/svg" xmlns:xlink="http://www.w3.org/1999/xlink">
    <!-- Generator: sketchtool 52.4 (67378) - http://www.bohemiancoding.com/sketch -->
    <title>C7D8D7F2-D6CA-4987-BA63-E892C1237ABA</title>
    <desc>Created with sketchtool.</desc>
    <g id="Page-1" stroke="none" stroke-width="1" fill="none" fill-rule="evenodd">
        <g id="Full-HD-" transform="translate(-973.000000, -48.000000)">
            <g id="Group-3" transform="translate(846.000000, 48.000000)">
                <g id="viber" transform="translate(127.978684, 0.000000)">
                    <rect id="Rectangle" fill="#7D3DAF" x="0" y="0" width="35.9787632" height="35.9787632"></rect>
                    <g id="Group" transform="translate(6.000000, 5.605263)" fill="#FFFFFF">
                        <path d="M23.3681053,5.99218421 L23.361,5.96376316 C22.7862632,3.64034211 20.1952105,1.14718421 17.8157368,0.6285 L17.7888947,0.622973684 C13.9402105,-0.111236842 10.0378421,-0.111236842 6.18994737,0.622973684 L6.16231579,0.6285 C3.78363158,1.14718421 1.19257895,3.64034211 0.617052632,5.96376316 L0.610736842,5.99218421 C-0.0997894737,9.23692105 -0.0997894737,12.5274474 0.610736842,15.7721842 L0.617052632,15.8006053 C1.16802632,18.0248684 3.56613158,20.4034737 5.85678947,21.0576316 L5.85678947,23.6512105 C5.85678947,24.5898947 7.00073684,25.0509474 7.65126316,24.3735789 L10.2790263,21.6420789 C10.8489474,21.6739737 11.4191842,21.6917368 11.9894211,21.6917368 C13.9267895,21.6917368 15.8649474,21.5085789 17.7888947,21.1414737 L17.8157368,21.1359474 C20.1952105,20.6172632 22.7862632,18.1241053 23.361,15.8006842 L23.3681053,15.7722632 C24.0786316,12.5274474 24.0786316,9.23692105 23.3681053,5.99218421 Z M21.2886316,15.3016579 C20.9049474,16.8174474 18.9375789,18.7019211 17.3744211,19.0500789 C15.3280263,19.4392105 13.2654474,19.6055526 11.2049211,19.5484737 C11.1639474,19.5473684 11.1245526,19.5632368 11.0959737,19.5926053 C10.8035526,19.8927632 9.17731579,21.5621842 9.17731579,21.5621842 L7.13652632,23.6566579 C6.98731579,23.8121842 6.72521053,23.7063947 6.72521053,23.4916579 L6.72521053,19.1951842 C6.72521053,19.1242105 6.67452632,19.0638947 6.60481579,19.0502368 C6.60442105,19.0501579 6.60402632,19.0500789 6.60363158,19.05 C5.04047368,18.7018421 3.07389474,16.8173684 2.68942105,15.3015789 C2.04994737,12.3686842 2.04994737,9.39552632 2.68942105,6.46263158 C3.07389474,4.94684211 5.04047368,3.06236842 6.60363158,2.71421053 C10.1775789,2.03447368 13.8012632,2.03447368 17.3744211,2.71421053 C18.9383684,3.06236842 20.9049474,4.94684211 21.2886316,6.46263158 C21.9288158,9.39560526 21.9288158,12.3687632 21.2886316,15.3016579 Z" id="Shape" fill-rule="nonzero"></path>
                        <path d="M15.3897632,17.2848947 C15.1494474,17.2119474 14.9204211,17.1629211 14.7077368,17.0746579 C12.5038421,16.1602895 10.4755263,14.9806579 8.86886842,13.1723684 C7.95521053,12.1440789 7.24010526,10.9831579 6.63560526,9.75457895 C6.34894737,9.17194737 6.10736842,8.5665 5.86113158,7.965 C5.63660526,7.41647368 5.96731579,6.84978947 6.31555263,6.4365 C6.64231579,6.04863158 7.06278947,5.75178947 7.51815789,5.53302632 C7.87357895,5.36226316 8.22418421,5.46071053 8.48376316,5.76197368 C9.04492105,6.41328947 9.56036842,7.09792105 9.97776316,7.85289474 C10.2344211,8.31726316 10.164,8.88489474 9.69884211,9.20092105 C9.58578947,9.27773684 9.48276316,9.36789474 9.37744737,9.45465789 C9.28507895,9.53068421 9.19815789,9.6075 9.13484211,9.71044737 C9.01910526,9.89881579 9.01357895,10.1209737 9.08810526,10.3257632 C9.66173684,11.9021842 10.6286053,13.128 12.2152895,13.7882368 C12.4691842,13.8938684 12.7241842,14.0168684 13.0166842,13.9827632 C13.5065526,13.9255263 13.6651579,13.3882105 14.0084211,13.1074737 C14.3439474,12.8331316 14.7727105,12.8295 15.1341316,13.0582105 C15.4956316,13.287 15.8460789,13.5326053 16.1943947,13.7808158 C16.5363158,14.0244474 16.8767368,14.2627895 17.1921316,14.5405263 C17.4953684,14.8076053 17.5998158,15.1579737 17.4290526,15.5204211 C17.1164211,16.1842105 16.6615263,16.7364474 16.0053158,17.0889474 C15.8200263,17.1883421 15.5987368,17.2205526 15.3897632,17.2848947 C15.1494474,17.2118684 15.5987368,17.2205526 15.3897632,17.2848947 Z" id="Path"></path>
                        <path d="M11.9954211,4.77402632 C14.8781842,4.85478947 17.2458947,6.76792105 17.7532895,9.61792105 C17.8397368,10.1035263 17.8705263,10.6000263 17.9089737,11.0928947 C17.9251579,11.3002105 17.8077632,11.4971842 17.5840263,11.4998684 C17.3529474,11.5026316 17.2489737,11.3092895 17.2339737,11.1020526 C17.2042895,10.6918421 17.1836842,10.2798158 17.1271579,9.873 C16.8287368,7.72555263 15.1163684,5.94892105 12.9788684,5.56768421 C12.6572368,5.51028947 12.3280263,5.49521053 12.0022105,5.46102632 C11.7962368,5.43939474 11.5264737,5.42692105 11.4808421,5.17089474 C11.4425526,4.95623684 11.6237368,4.78531579 11.8281316,4.77434211 C11.8837105,4.77126316 11.9396053,4.77378947 11.9954211,4.77402632 C14.8781842,4.85478947 11.9396053,4.77378947 11.9954211,4.77402632 Z" id="Path"></path>
                        <path d="M16.3763684,10.4531842 C16.3716316,10.4891842 16.3691053,10.5738158 16.3480263,10.6535526 C16.2715263,10.9429737 15.8327368,10.9792105 15.7316842,10.6871053 C15.7017632,10.6004211 15.6972632,10.5018158 15.6971053,10.4085 C15.6960789,9.79792105 15.5633684,9.18797368 15.2554737,8.65673684 C14.9389737,8.11073684 14.4554211,7.65173684 13.8882632,7.374 C13.5453158,7.20607895 13.1744211,7.10171053 12.7985526,7.0395 C12.6342632,7.01234211 12.4682368,6.99584211 12.3031579,6.97286842 C12.1031053,6.94507895 11.9962895,6.81757895 12.0057632,6.62044737 C12.0146053,6.43571053 12.1496053,6.30284211 12.3509211,6.31421053 C13.0125,6.35178947 13.6515,6.49476316 14.2396579,6.80621053 C15.4357105,7.43960526 16.1189211,8.43939474 16.3183421,9.77439474 C16.3273421,9.83486842 16.3418684,9.89478947 16.3464474,9.9555 C16.3577368,10.1054211 16.3648421,10.2555 16.3763684,10.4531842 C16.3716316,10.4891842 16.3648421,10.2555 16.3763684,10.4531842 Z" id="Path"></path>
                        <path d="M14.5833158,10.3833947 C14.3421316,10.3877368 14.2130526,10.2542368 14.1881842,10.0331053 C14.1708947,9.87892105 14.1572368,9.72268421 14.1204474,9.57268421 C14.0479737,9.27726316 13.8909474,9.00347368 13.6424211,8.82244737 C13.5251053,8.73694737 13.3921579,8.67465789 13.2528947,8.63447368 C13.0759737,8.58339474 12.8922632,8.59744737 12.7157368,8.55418421 C12.5240526,8.50721053 12.4180263,8.352 12.4481842,8.17215789 C12.4755789,8.0085 12.6348158,7.88076316 12.8136316,7.89371053 C13.9312895,7.97439474 14.7300789,8.55221053 14.8440789,9.86794737 C14.8521316,9.96078947 14.8616053,10.0589211 14.841,10.1477368 C14.8057105,10.2997895 14.6931316,10.3759737 14.5833158,10.3833947 C14.3421316,10.3877368 14.6931316,10.3759737 14.5833158,10.3833947 Z" id="Path"></path>
                    </g>
                </g>
            </g>
        </g>
    </g>
</svg>