<svg xmlns="http://www.w3.org/2000/svg" width="81" height="86" viewBox="0 0 81 86">
    <path fill="#DB3232" fill-rule="nonzero" stroke="#DF3333" d="M69.236 32.941v-3.23c0-7.729-2.735-14.911-7.693-20.24C56.46 4 49.473 1 41.85 1h-2.665c-7.623 0-14.61 3-19.692 8.47-4.959 5.33-7.694 12.512-7.694 20.242v3.23C5.782 33.346 1 38.358 1 44.481v5.047C1 55.9 6.188 61.09 12.558 61.09h6.511a2.124 2.124 0 0 0 2.118-2.118V35.024a2.124 2.124 0 0 0-2.118-2.118h-3.035v-3.194c0-13.96 9.952-24.477 23.134-24.477h2.664c13.2 0 23.134 10.518 23.134 24.477v3.194H61.93a2.124 2.124 0 0 0-2.118 2.118v23.929c0 1.165.953 2.118 2.118 2.118h2.964c-.864 11.047-8.47 13.605-11.999 14.188a7.446 7.446 0 0 0-7.076-5.135h-5.294c-4.093 0-7.428 3.335-7.428 7.429S36.433 85 40.526 85h5.312c3.423 0 6.3-2.33 7.164-5.47 1.73-.248 4.464-.865 7.182-2.454 3.829-2.24 8.364-6.811 8.964-16.023C75.2 60.683 80 55.653 80 49.512v-5.047c.018-6.106-4.747-11.136-10.764-11.524zM16.987 56.835h-4.394a7.328 7.328 0 0 1-7.323-7.323v-5.047a7.328 7.328 0 0 1 7.323-7.324h4.394v19.694zm28.85 23.93h-5.31a3.193 3.193 0 0 1-3.194-3.194 3.193 3.193 0 0 1 3.193-3.195h5.312a3.193 3.193 0 0 1 3.194 3.195 3.193 3.193 0 0 1-3.194 3.194zm29.946-31.253a7.328 7.328 0 0 1-7.323 7.323h-4.394V37.141h4.394a7.328 7.328 0 0 1 7.323 7.324v5.047z"/>
</svg>
