<svg xmlns="http://www.w3.org/2000/svg" width="43" height="54" viewBox="0 0 43 54">
    <path fill="#DF3333" fill-rule="evenodd" d="M34.84 46.485a4.657 4.657 0 0 1-4.356 3.035H19.091a5.226 5.226 0 0 1-4.471-2.492L5.348 32.076a.707.707 0 0 1 .182-.941l1.115-.82a1.79 1.79 0 0 1 2.372.532c.044.055.092.122.142.177l3.513 4.065a2.719 2.719 0 0 0 2.96.908 2.714 2.714 0 0 0 1.91-2.603v-19.06c0-1.086.878-1.961 1.956-1.961 1.077 0 1.955.875 1.955 1.96v9.215c0 1.03.699 1.916 1.69 2.16l12.725 3.079c1.056.265 1.802 1.218 1.816 2.337.061 4.917-.896 10.078-2.844 15.361zM9.636 14.023c0-5.45 4.422-9.88 9.862-9.88 5.439 0 9.86 4.43 9.86 9.88 0 3.001-1.355 5.693-3.483 7.51v-7.2c0-3.522-2.86-6.39-6.377-6.39s-6.378 2.868-6.378 6.39v7.21c-2.127-1.816-3.484-4.508-3.484-7.52zM36.91 24.489l-7.473-1.816a13.106 13.106 0 0 0 3.24-8.65C32.675 6.746 26.76.82 19.497.82 12.234.82 6.32 6.746 6.32 14.023c0 4.962 2.748 9.281 6.8 11.53v3.289l-.55-.642a6.212 6.212 0 0 0-8.326-1.606.898.898 0 0 0-.138.088l-1.195.875C.767 29.141.187 32.154 1.593 34.413l9.272 14.952a9.626 9.626 0 0 0 8.226 4.585h11.393a9.098 9.098 0 0 0 8.504-5.925c2.137-5.793 3.186-11.497 3.118-16.957-.04-3.145-2.176-5.848-5.197-6.579z"/>
</svg>
