<svg xmlns="http://www.w3.org/2000/svg" width="56" height="54" viewBox="0 0 56 54">
    <path fill="#DF3333" fill-rule="evenodd" d="M39.59 48.471c-3.616 0-6.812-1.675-8.927-4.277a16.19 16.19 0 0 0 1.743-7.296c0-1.7-.279-3.347-.779-4.89a16.208 16.208 0 0 0 9.59-6.557c5.602.799 9.926 5.62 9.926 11.447 0 6.381-5.184 11.573-11.554 11.573zm-23.387 0c-6.37 0-11.554-5.192-11.554-11.573 0-5.826 4.324-10.648 9.915-11.447a16.191 16.191 0 0 0 12.274 6.956 11.34 11.34 0 0 1 .919 4.49c0 6.382-5.184 11.574-11.554 11.574zM27.896 4.658c6.37 0 11.542 5.191 11.542 11.573 0 6.38-5.172 11.57-11.542 11.57s-11.553-5.19-11.553-11.57c0-6.382 5.184-11.573 11.553-11.573zm15.448 16.454c.488-1.54.744-3.18.744-4.881C44.088 7.268 36.835 0 27.896 0c-8.95 0-16.203 7.268-16.203 16.23 0 1.703.267 3.344.744 4.885C5.3 22.812 0 29.237 0 36.898c0 8.965 7.253 16.231 16.203 16.231 4.591 0 8.73-1.926 11.682-5.006 2.952 3.083 7.101 5.006 11.704 5.006 8.95 0 16.203-7.266 16.203-16.231 0-7.661-5.312-14.09-12.448-15.786z"/>
</svg>
