<svg xmlns="http://www.w3.org/2000/svg" width="49" height="63" viewBox="0 0 49 63">
    <g fill="#DF3333" fill-rule="evenodd">
        <path d="M5.394 5.496h38.212v48.131a2.687 2.687 0 0 0-.787-.511 2.576 2.576 0 0 0-2.279.176c-.039.022-.079.036-.115.06l-.013.011c-.138.092-.27.198-.392.321l-2.512 2.52-2.512-2.52a2.575 2.575 0 0 0-3.65 0l-2.512 2.52-2.512-2.52a2.468 2.468 0 0 0-.391-.321c-.006-.003-.01-.008-.013-.01-.033-.021-.067-.034-.1-.053a2.572 2.572 0 0 0-2.292-.184 2.546 2.546 0 0 0-.854.568l-.003.004-2.509 2.515-2.512-2.519a2.575 2.575 0 0 0-3.65 0l-2.512 2.52-2.512-2.52c-.035-.036-.077-.06-.114-.094-.093-.083-.186-.167-.286-.235-.044-.028-.092-.046-.137-.072-.1-.06-.202-.12-.309-.163-.053-.022-.108-.033-.162-.05-.104-.034-.204-.07-.31-.093-.062-.013-.125-.013-.188-.02-.1-.013-.198-.028-.299-.029-.067 0-.135.01-.204.016-.094.006-.188.01-.282.027-.071.013-.14.037-.21.057-.088.023-.176.044-.263.077-.07.028-.138.068-.206.101-.081.04-.163.078-.239.127-.066.042-.126.096-.19.144-.06.048-.125.087-.181.14V5.497zm43.168 55.358c.039-.084.065-.173.09-.261.014-.074.04-.144.065-.222a3.33 3.33 0 0 0 .052-.507V2.907A2.59 2.59 0 0 0 46.188.318H2.812a2.585 2.585 0 0 0-2.58 2.59v56.956a2.586 2.586 0 0 0 2.58 2.589c.671 0 1.332-.263 1.825-.758l2.512-2.52 2.513 2.52c.215.217.463.377.724.5.043.02.085.05.13.069.041.017.086.024.13.039.273.094.555.15.84.15a2.568 2.568 0 0 0 1.826-.757l.003-.004 2.508-2.517 2.513 2.52a2.569 2.569 0 0 0 1.824.758c.66 0 1.322-.253 1.825-.758l2.512-2.52 2.513 2.52c.215.217.463.377.724.5.043.02.085.05.129.069.042.017.087.024.131.039.271.094.555.15.84.15a2.56 2.56 0 0 0 1.829-.761l2.508-2.517 2.509 2.517.002.003a2.563 2.563 0 0 0 1.826.758c.286 0 .568-.056.84-.15.044-.015.088-.022.131-.04.045-.017.086-.047.13-.068.261-.123.509-.283.724-.5l2.518-2.52 2.504 2.518c.116.12.258.229.4.325.065.043.13.071.194.109.077.044.155.093.245.129.09.035.18.056.258.082.077.02.155.049.22.064a2.587 2.587 0 0 0 1.019 0c.077-.015.142-.044.22-.064.09-.026.18-.047.257-.082.09-.036.168-.085.246-.13.064-.037.142-.065.206-.108a2.82 2.82 0 0 0 .71-.719c.039-.062.065-.13.103-.196.052-.082.103-.16.13-.249z"/>
        <path d="M16.514 19.229h15.972c1.05 0 1.901-1.007 1.901-2.251 0-1.243-.851-2.252-1.9-2.252H16.513c-1.051 0-1.901 1.009-1.901 2.252 0 1.244.85 2.25 1.9 2.25M13.814 27.333h22.271c1.048 0 1.898-1.007 1.898-2.25 0-1.244-.85-2.252-1.898-2.252H13.814c-1.049 0-1.898 1.008-1.898 2.251 0 1.244.849 2.251 1.898 2.251M13.814 35.438h22.271c1.048 0 1.898-1.007 1.898-2.251 0-1.243-.85-2.252-1.898-2.252H13.814c-1.049 0-1.898 1.009-1.898 2.252 0 1.244.849 2.25 1.898 2.25"/>
    </g>
</svg>
