<svg xmlns="http://www.w3.org/2000/svg" width="53" height="53" viewBox="0 0 53 53">
    <g fill="#DF3333" fill-rule="evenodd">
        <path d="M9.307 9.992a1.624 1.624 0 0 1-2.296 0L3.185 6.158a1.629 1.629 0 0 1 0-2.301 1.622 1.622 0 0 1 2.295 0L9.307 7.69a1.631 1.631 0 0 1 0 2.3M9.307 26.954a1.631 1.631 0 0 1 0 2.3L5.48 33.089a1.62 1.62 0 0 1-2.295 0 1.628 1.628 0 0 1 0-2.3l3.826-3.834a1.622 1.622 0 0 1 2.296 0M32.36 3.857a1.629 1.629 0 0 1 0 2.3l-3.825 3.835a1.622 1.622 0 0 1-2.296 0 1.629 1.629 0 0 1 0-2.301l3.826-3.834a1.622 1.622 0 0 1 2.296 0M17.725.822c.896 0 1.624.729 1.624 1.626v2.355c0 .898-.728 1.627-1.624 1.627a1.626 1.626 0 0 1-1.623-1.627V2.448c0-.897.727-1.626 1.623-1.626M.155 18.424c0-.898.727-1.626 1.624-1.626h2.35c.897 0 1.623.728 1.623 1.626 0 .899-.726 1.626-1.624 1.626h-2.35a1.624 1.624 0 0 1-1.623-1.626M43.818 47.631L22.38 26.155l3.06-3.066L46.88 44.565l-3.061 3.066zm7.653-4.6L22.316 13.826a2.161 2.161 0 0 0-3.06 0l-6.122 6.133a2.171 2.171 0 0 0 0 3.067l29.154 29.207c.423.424.976.635 1.53.635s1.108-.211 1.53-.635l6.123-6.134a2.17 2.17 0 0 0 0-3.066z"/>
    </g>
</svg>
