<svg xmlns="http://www.w3.org/2000/svg" width="67" height="54" viewBox="0 0 67 54">
    <path fill="#DF3333" fill-rule="evenodd" d="M60.798 47.547h-38.85a.375.375 0 0 1-.376-.376V31.54h39.616v15.63c0 .209-.181.376-.39.376zm-46.692-4.396l-8.51-24.086a.387.387 0 0 1 .013-.279.353.353 0 0 1 .223-.195L42.44 5.598c.223-.07.432.028.501.238l3.469 9.824h-24.46c-3.274 0-5.948 2.665-5.948 5.959v21.267l-1.407.503c-.195.056-.418-.042-.488-.238zM61.188 21.62v2.944H21.572V21.62c0-.21.168-.377.377-.377h38.849c.209 0 .39.168.39.377zm-.39-5.959h-8.483L48.192 3.98A5.956 5.956 0 0 0 40.6.337L3.98 13.33a5.919 5.919 0 0 0-3.4 3.056 5.93 5.93 0 0 0-.236 4.549l8.51 24.086a5.98 5.98 0 0 0 5.614 3.964c.585 0 1.17-.098 1.756-.28.682 2.54 2.98 4.424 5.725 4.424h38.849c3.287 0 5.962-2.679 5.962-5.958V21.619a5.962 5.962 0 0 0-5.962-5.959z"/>
</svg>
